<svg width="25" height="25" viewBox="0 0 25 25" fill="none" xmlns="http://www.w3.org/2000/svg">
<path d="M3.56543 18.2474L3.56543 6.24744C3.56543 4.0383 5.35629 2.24744 7.56543 2.24744L14.5654 2.24744L21.5654 9.24744L21.5654 18.2474C21.5654 20.4566 19.7746 22.2474 17.5654 22.2474L7.56543 22.2474C5.35629 22.2474 3.56543 20.4566 3.56543 18.2474Z" fill="#E99E24"/>
<path d="M14.5654 5.24744L14.5654 2.24744L21.5654 9.24744L18.5654 9.24744C16.3563 9.24744 14.5654 7.45658 14.5654 5.24744Z" fill="#161616"/>
<path fill-rule="evenodd" clip-rule="evenodd" d="M16.0593 11.683C16.3711 11.9558 16.4027 12.4296 16.1299 12.7413L13.26 16.0212C12.6433 16.726 11.581 16.8204 10.8498 16.2354L9.09694 14.8331C8.77349 14.5743 8.72105 14.1024 8.97981 13.7789C9.23856 13.4555 9.71053 13.403 10.034 13.6618L11.7868 15.0641C11.8913 15.1476 12.043 15.1341 12.1311 15.0335L15.001 11.7536C15.2738 11.4418 15.7476 11.4103 16.0593 11.683Z" fill="#161616"/>
</svg>
