<svg width="24" height="25" viewBox="0 0 24 25" fill="none" xmlns="http://www.w3.org/2000/svg">
<g clip-path="url(#clip0_226_6808)">
<path opacity="0.4" d="M14.5645 4.03935L13.1342 2.60905C12.3442 1.81912 11.0635 1.81912 10.2736 2.60905L8.84326 4.03935C8.84326 4.03935 8.84326 5.46965 10.2736 6.89994C11.7039 8.33024 13.1342 8.33024 13.1342 8.33024L14.5645 6.89994C15.3544 6.11001 15.3544 4.82928 14.5645 4.03935Z" fill="white"/>
<path d="M7.16615 20.2969L10.1698 19.8678C10.603 19.8059 11.0045 19.6052 11.314 19.2957L17.9887 12.621C17.9887 12.621 16.5584 12.621 15.1281 11.1907C13.6978 9.76038 13.6978 8.33008 13.6978 8.33008L7.02312 15.0048C6.71364 15.3143 6.51289 15.7158 6.451 16.149L6.02191 19.1527C5.92656 19.8201 6.49868 20.3922 7.16615 20.2969Z" fill="white"/>
<path opacity="0.4" fill-rule="evenodd" clip-rule="evenodd" d="M6 21.8076C4.20507 21.8076 2.75 23.2627 2.75 25.0576V37.0576C2.75 38.8525 4.20507 40.3076 6 40.3076H18C19.7949 40.3076 21.25 38.8525 21.25 37.0576V31.0576C21.25 30.6434 21.5858 30.3076 22 30.3076C22.4142 30.3076 22.75 30.6434 22.75 31.0576V37.0576C22.75 39.681 20.6234 41.8076 18 41.8076H6C3.37665 41.8076 1.25 39.681 1.25 37.0576V25.0576C1.25 22.4343 3.37665 20.3076 6 20.3076H12C12.4142 20.3076 12.75 20.6434 12.75 21.0576C12.75 21.4718 12.4142 21.8076 12 21.8076H6Z" fill="white"/>
</g>
<defs>
<clipPath id="clip0_226_6808">
<rect width="24" height="24" fill="white" transform="translate(0 0.766602)"/>
</clipPath>
</defs>
</svg>
