<svg width="25" height="25" viewBox="0 0 25 25" fill="none" xmlns="http://www.w3.org/2000/svg">
<path opacity="0.4" d="M2.34534 12.1191C2.34534 6.59629 6.82249 2.11914 12.3453 2.11914C17.8682 2.11914 22.3453 6.59629 22.3453 12.1191C22.3453 17.642 17.8682 22.1191 12.3453 22.1191C6.82249 22.1191 2.34534 17.642 2.34534 12.1191Z" fill="#21D184"/>
<path fill-rule="evenodd" clip-rule="evenodd" d="M12.8757 7.58881C12.5828 7.29592 12.1079 7.29592 11.815 7.58881L8.81501 10.5888C8.52211 10.8817 8.52211 11.3566 8.81501 11.6495C9.1079 11.9424 9.58277 11.9424 9.87567 11.6495L11.5953 9.9298V16.1191C11.5953 16.5334 11.9311 16.8691 12.3453 16.8691C12.7596 16.8691 13.0953 16.5334 13.0953 16.1191V9.9298L14.815 11.6495C15.1079 11.9424 15.5828 11.9424 15.8757 11.6495C16.1686 11.3566 16.1686 10.8817 15.8757 10.5888L12.8757 7.58881Z" fill="#161616"/>
</svg>
