<svg width="25" height="25" viewBox="0 0 25 25" fill="none" xmlns="http://www.w3.org/2000/svg">
<path fill-rule="evenodd" clip-rule="evenodd" d="M11.8823 5.67188C9.75856 4.18376 6.77813 3.50938 4.55976 3.25871C3.46185 3.13465 2.56543 4.05146 2.56543 5.18262V16.4474C2.56543 17.5785 3.46185 18.4957 4.55976 18.6198C6.77813 18.8704 9.75856 19.5448 11.8823 21.0329C12.0863 21.1759 12.3259 21.2474 12.5654 21.2474V5.88639C12.3259 5.88639 12.0863 5.81489 11.8823 5.67188ZM4.82437 8.3874C4.88776 7.97806 5.27099 7.69762 5.68032 7.76102C6.9831 7.96278 8.45024 8.30001 9.83604 8.8359C10.2224 8.98529 10.4145 9.41959 10.2651 9.80592C10.1157 10.1923 9.68137 10.3843 9.29503 10.2349C8.03639 9.74822 6.67953 9.43365 5.45075 9.24335C5.04142 9.17995 4.76098 8.79673 4.82437 8.3874ZM5.68032 11.761C5.27099 11.6976 4.88776 11.9781 4.82437 12.3874C4.76098 12.7967 5.04142 13.18 5.45075 13.2433C6.07 13.3392 6.72367 13.467 7.38206 13.6331C7.78369 13.7344 8.19142 13.491 8.29275 13.0894C8.39408 12.6877 8.15064 12.28 7.74901 12.1787C7.04 11.9998 6.34005 11.8632 5.68032 11.761Z" fill="#6E7883"/>
<path opacity="0.4" d="M13.2486 5.67188C15.3723 4.18376 18.3527 3.50938 20.5711 3.25871C21.669 3.13465 22.5654 4.05146 22.5654 5.18262V16.4474C22.5654 17.5785 21.669 18.4957 20.5711 18.6198C18.3527 18.8704 15.3723 19.5448 13.2486 21.0329C13.0445 21.1759 12.805 21.2474 12.5654 21.2474V5.88639C12.805 5.88639 13.0445 5.81489 13.2486 5.67188Z" fill="#6E7883"/>
<path fill-rule="evenodd" clip-rule="evenodd" d="M22.0593 16.683C22.3711 16.9558 22.4027 17.4296 22.1299 17.7413L19.26 21.0212C18.6433 21.726 17.581 21.8204 16.8498 21.2354L15.0969 19.8331C14.7735 19.5743 14.721 19.1024 14.9798 18.7789C15.2386 18.4555 15.7105 18.403 16.034 18.6618L17.7868 20.0641C17.8913 20.1476 18.043 20.1341 18.1311 20.0335L21.001 16.7536C21.2738 16.4418 21.7476 16.4103 22.0593 16.683Z" fill="#6E7883"/>
</svg>
