<svg width="24" height="25" viewBox="0 0 24 25" fill="none" xmlns="http://www.w3.org/2000/svg">
<path fill-rule="evenodd" clip-rule="evenodd" d="M11.3168 5.97132C9.19313 4.48319 6.21271 3.80882 3.99433 3.55815C2.89642 3.43408 2 4.3509 2 5.48205V16.7468C2 17.878 2.89642 18.7951 3.99433 18.9192C6.21271 19.1699 9.19313 19.8442 11.3168 21.3324C11.5209 21.4754 11.7605 21.5469 12 21.5469V6.18583C11.7605 6.18583 11.5209 6.11432 11.3168 5.97132ZM4.25894 8.68684C4.32234 8.2775 4.70556 7.99706 5.11489 8.06046C6.41767 8.26222 7.88481 8.59945 9.27061 9.13534C9.65695 9.28473 9.84902 9.71903 9.69963 10.1054C9.55023 10.4917 9.11594 10.6838 8.7296 10.5344C7.47096 10.0477 6.1141 9.73308 4.88532 9.54278C4.47599 9.47939 4.19555 9.09617 4.25894 8.68684ZM5.11489 12.0605C4.70556 11.9971 4.32234 12.2775 4.25894 12.6868C4.19555 13.0962 4.47599 13.4794 4.88532 13.5428C5.50457 13.6387 6.15824 13.7664 6.81663 13.9326C7.21826 14.0339 7.62599 13.7904 7.72732 13.3888C7.82865 12.9872 7.58521 12.5795 7.18358 12.4781C6.47457 12.2992 5.77462 12.1626 5.11489 12.0605Z" fill="#FF5C5C"/>
<path opacity="0.4" d="M12.6832 5.97132C14.8069 4.48319 17.7873 3.80882 20.0057 3.55815C21.1036 3.43408 22 4.3509 22 5.48205V16.7468C22 17.878 21.1036 18.7951 20.0057 18.9192C17.7873 19.1699 14.8069 19.8442 12.6832 21.3324C12.4791 21.4754 12.2395 21.5469 12 21.5469V6.18583C12.2395 6.18583 12.4791 6.11432 12.6832 5.97132Z" fill="#FF5C5C"/>
<path fill-rule="evenodd" clip-rule="evenodd" d="M20.773 16.7744C21.0659 17.0672 21.0659 17.5421 20.773 17.835L19.182 19.426L20.773 21.017C21.0659 21.3099 21.0659 21.7848 20.773 22.0777C20.4801 22.3706 20.0052 22.3706 19.7123 22.0777L18.1213 20.4867L16.5303 22.0777C16.2374 22.3706 15.7626 22.3705 15.4697 22.0777C15.1768 21.7848 15.1768 21.3099 15.4697 21.017L17.0607 19.426L15.4697 17.8351C15.1768 17.5422 15.1768 17.0673 15.4697 16.7744C15.7626 16.4815 16.2374 16.4815 16.5303 16.7744L18.1213 18.3654L19.7123 16.7744C20.0052 16.4815 20.4801 16.4815 20.773 16.7744Z" fill="#FF5C5C"/>
</svg>
