<svg width="24" height="25" viewBox="0 0 24 25" fill="none" xmlns="http://www.w3.org/2000/svg">
<path fill-rule="evenodd" clip-rule="evenodd" d="M11.3168 5.97132C9.19313 4.48319 6.21271 3.80882 3.99433 3.55815C2.89642 3.43408 2 4.3509 2 5.48205V16.7468C2 17.878 2.89642 18.7951 3.99433 18.9192C6.21271 19.1699 9.19313 19.8442 11.3168 21.3324C11.5209 21.4754 11.7605 21.5469 12 21.5469V6.18583C11.7605 6.18583 11.5209 6.11432 11.3168 5.97132ZM4.25894 8.68684C4.32234 8.2775 4.70556 7.99706 5.11489 8.06046C6.41767 8.26222 7.88481 8.59945 9.27061 9.13534C9.65695 9.28473 9.84902 9.71903 9.69963 10.1054C9.55023 10.4917 9.11594 10.6838 8.7296 10.5344C7.47096 10.0477 6.1141 9.73308 4.88532 9.54278C4.47599 9.47939 4.19555 9.09617 4.25894 8.68684ZM5.11489 12.0605C4.70556 11.9971 4.32234 12.2775 4.25894 12.6868C4.19555 13.0962 4.47599 13.4794 4.88532 13.5428C5.50457 13.6387 6.15824 13.7664 6.81663 13.9326C7.21826 14.0339 7.62599 13.7904 7.72732 13.3888C7.82865 12.9872 7.58521 12.5795 7.18358 12.4781C6.47457 12.2992 5.77462 12.1626 5.11489 12.0605Z" fill="#21D184"/>
<path opacity="0.4" d="M12.6832 5.97132C14.8069 4.48319 17.7873 3.80882 20.0057 3.55815C21.1036 3.43408 22 4.3509 22 5.48205V16.7468C22 17.878 21.1036 18.7951 20.0057 18.9192C17.7873 19.1699 14.8069 19.8442 12.6832 21.3324C12.4791 21.4754 12.2395 21.5469 12 21.5469V6.18583C12.2395 6.18583 12.4791 6.11432 12.6832 5.97132Z" fill="#21D184"/>
<path fill-rule="evenodd" clip-rule="evenodd" d="M21.4939 16.9825C21.8056 17.2552 21.8372 17.729 21.5645 18.0408L18.6946 21.3207C18.0779 22.0254 17.0156 22.1198 16.2843 21.5348L14.5315 20.1325C14.2081 19.8738 14.1556 19.4018 14.4144 19.0784C14.6731 18.7549 15.1451 18.7025 15.4685 18.9612L17.2214 20.3635C17.3258 20.4471 17.4776 20.4336 17.5657 20.3329L20.4356 17.053C20.7084 16.7413 21.1822 16.7097 21.4939 16.9825Z" fill="#21D184"/>
</svg>
