<svg width="67" height="66" viewBox="0 0 67 66" fill="none" xmlns="http://www.w3.org/2000/svg">
<path fill-rule="evenodd" clip-rule="evenodd" d="M32.0073 15.5115C26.1671 11.4812 17.9709 9.65475 11.8704 8.97584C8.85115 8.63984 6.38599 11.1229 6.38599 14.1864V44.6952C6.38599 47.7587 8.85115 50.2427 11.8704 50.5787C17.9709 51.2576 26.1671 53.084 32.0073 57.1144C32.5685 57.5017 33.2272 57.6953 33.886 57.6953V16.0925C33.2272 16.0925 32.5685 15.8988 32.0073 15.5115ZM12.5981 22.866C12.7724 21.7574 13.8263 20.9979 14.9519 21.1696C18.5346 21.716 22.5692 22.6294 26.3802 24.0807C27.4426 24.4853 27.9708 25.6616 27.56 26.7079C27.1491 27.7542 25.9548 28.2744 24.8924 27.8698C21.4311 26.5516 17.6998 25.6996 14.3206 25.1842C13.195 25.0125 12.4237 23.9747 12.5981 22.866ZM14.9519 32.0029C13.8263 31.8312 12.7724 32.5908 12.5981 33.6994C12.4237 34.808 13.195 35.8459 14.3206 36.0176C16.0235 36.2773 17.8211 36.6233 19.6317 37.0732C20.7362 37.3476 21.8575 36.6883 22.1361 35.6006C22.4148 34.5128 21.7453 33.4086 20.6408 33.1341C18.6911 32.6496 16.7662 32.2796 14.9519 32.0029Z" fill="url(#paint0_linear_981_24595)"/>
<path opacity="0.4" d="M35.7647 15.5115C41.6049 11.4812 49.801 9.65475 55.9016 8.97584C58.9208 8.63984 61.386 11.1229 61.386 14.1864V44.6952C61.386 47.7587 58.9208 50.2427 55.9016 50.5787C49.801 51.2576 41.6049 53.084 35.7647 57.1144C35.2035 57.5017 34.5447 57.6953 33.886 57.6953V16.0925C34.5447 16.0925 35.2035 15.8988 35.7647 15.5115Z" fill="url(#paint1_linear_981_24595)"/>
<path fill-rule="evenodd" clip-rule="evenodd" d="M58.0116 44.7668C58.8171 45.56 58.8171 46.8462 58.0117 47.6394L53.6364 51.9485L58.0117 56.2574C58.8171 57.0506 58.8171 58.3368 58.0117 59.13C57.2062 59.9233 55.9003 59.9233 55.0948 59.13L50.7196 54.8211L46.3444 59.1299C45.5389 59.9232 44.233 59.9232 43.4276 59.1299C42.6221 58.3366 42.6221 57.0505 43.4276 56.2573L47.8028 51.9485L43.4276 47.6395C42.6221 46.8463 42.6221 45.5602 43.4276 44.7669C44.233 43.9737 45.5389 43.9737 46.3444 44.7669L50.7196 49.0758L55.0948 44.7668C55.9003 43.9736 57.2062 43.9736 58.0116 44.7668Z" fill="#161616"/>
<defs>
<linearGradient id="paint0_linear_981_24595" x1="37.5991" y1="10.7764" x2="13.9317" y2="10.7764" gradientUnits="userSpaceOnUse">
<stop stop-color="#F6BC18"/>
<stop offset="1" stop-color="#EF6B25"/>
</linearGradient>
<linearGradient id="paint1_linear_981_24595" x1="65.0991" y1="10.7764" x2="41.4317" y2="10.7764" gradientUnits="userSpaceOnUse">
<stop stop-color="#F6BC18"/>
<stop offset="1" stop-color="#EF6B25"/>
</linearGradient>
</defs>
</svg>
