<svg width="25" height="25" viewBox="0 0 25 25" fill="none" xmlns="http://www.w3.org/2000/svg">
<path d="M12.5654 21.2474C13.9505 21.2474 15.1287 20.4126 15.5654 19.2474H9.56543C10.0021 20.4126 11.1804 21.2474 12.5654 21.2474Z" fill="#161616"/>
<path fill-rule="evenodd" clip-rule="evenodd" d="M18.7066 10.0823C18.345 10.1897 17.9619 10.2474 17.5654 10.2474C15.3563 10.2474 13.5654 8.45658 13.5654 6.24744C13.5654 5.93735 13.6007 5.63551 13.6675 5.3457C13.309 5.28107 12.9407 5.24744 12.5654 5.24744C9.33638 5.24744 6.61925 7.73829 6.24507 11.0415L5.90019 14.0859C5.81449 14.8424 5.50789 15.5543 5.02092 16.1275C3.98752 17.3438 4.82624 19.2474 6.39556 19.2474H18.7353C20.3046 19.2474 21.1433 17.3438 20.1099 16.1275C19.623 15.5543 19.3164 14.8424 19.2307 14.0859L18.8858 11.0415C18.8486 10.7132 18.7883 10.3929 18.7066 10.0823Z" fill="#E99E24"/>
<circle cx="17.5654" cy="6.24744" r="3" fill="#161616"/>
</svg>
