<svg width="25" height="25" viewBox="0 0 25 25" fill="none" xmlns="http://www.w3.org/2000/svg">
<path opacity="0.4" d="M2.93848 6.91406C2.93848 4.70492 4.72934 2.91406 6.93848 2.91406H18.9385C21.1476 2.91406 22.9385 4.70492 22.9385 6.91406V18.9141C22.9385 21.1232 21.1476 22.9141 18.9385 22.9141H6.93848C4.72934 22.9141 2.93848 21.1232 2.93848 18.9141V6.91406Z" fill="white"/>
<path fill-rule="evenodd" clip-rule="evenodd" d="M14.6885 9.91406C14.6885 9.49985 15.0243 9.16406 15.4385 9.16406L17.3205 9.16406C17.9833 9.16406 18.5893 9.53857 18.8857 10.1314L19.6093 11.5787C19.7946 11.9491 19.6444 12.3996 19.2739 12.5849C18.9034 12.7701 18.4529 12.62 18.2677 12.2495L17.7763 11.2667L15.3302 14.9981C14.6242 16.0749 13.0363 16.0464 12.3695 14.9449L10.4613 11.7925C10.3614 11.6274 10.12 11.633 10.0278 11.8025L7.59739 16.2723C7.39952 16.6362 6.94412 16.7708 6.58022 16.573C6.21633 16.3751 6.08174 15.9197 6.2796 15.5558L8.71005 11.086C9.35538 9.89917 11.045 9.86006 11.7446 11.0157L13.6527 14.1681C13.748 14.3255 13.9748 14.3296 14.0757 14.1757L16.3778 10.6641H15.4385C15.0243 10.6641 14.6885 10.3283 14.6885 9.91406Z" fill="white"/>
</svg>
