<svg width="25" height="25" viewBox="0 0 25 25" fill="none" xmlns="http://www.w3.org/2000/svg">
<path opacity="0.4" d="M22.0239 12.7656C22.0239 18.2885 17.5468 22.7656 12.0239 22.7656C6.50108 22.7656 2.02393 18.2885 2.02393 12.7656C2.02393 7.24278 6.50108 2.76562 12.0239 2.76562C17.5468 2.76562 22.0239 7.24278 22.0239 12.7656Z" fill="white"/>
<path fill-rule="evenodd" clip-rule="evenodd" d="M16.4844 9.17365C16.8113 9.42795 16.8702 9.89915 16.6159 10.2261L12.6089 15.378C11.9852 16.1799 10.812 16.284 10.0569 15.6043L7.52221 13.3231C7.21433 13.046 7.18937 12.5718 7.46646 12.2639C7.74356 11.9561 8.21777 11.9311 8.52566 12.2082L11.0603 14.4894C11.1682 14.5865 11.3358 14.5716 11.4249 14.4571L15.4319 9.3052C15.6862 8.97824 16.1574 8.91934 16.4844 9.17365Z" fill="white"/>
</svg>
