<svg width="41" height="40" viewBox="0 0 41 40" fill="none" xmlns="http://www.w3.org/2000/svg">
<path d="M12.2997 14.2497C11.8855 14.2497 11.5497 14.5855 11.5497 14.9997C11.5497 15.4139 11.8855 15.7497 12.2997 15.7497V14.2497ZM28.9664 15.7497C29.3806 15.7497 29.7164 15.4139 29.7164 14.9997C29.7164 14.5855 29.3806 14.2497 28.9664 14.2497V15.7497ZM12.2997 20.9163C11.8855 20.9163 11.5497 21.2521 11.5497 21.6663C11.5497 22.0806 11.8855 22.4163 12.2997 22.4163V20.9163ZM28.9664 22.4163C29.3806 22.4163 29.7164 22.0806 29.7164 21.6663C29.7164 21.2521 29.3806 20.9163 28.9664 20.9163V22.4163ZM12.2997 27.583C11.8855 27.583 11.5497 27.9188 11.5497 28.333C11.5497 28.7472 11.8855 29.083 12.2997 29.083V27.583ZM20.6331 29.083C21.0473 29.083 21.3831 28.7472 21.3831 28.333C21.3831 27.9188 21.0473 27.583 20.6331 27.583V29.083ZM28.0497 3.33301C28.0497 2.91879 27.7139 2.58301 27.2997 2.58301C26.8855 2.58301 26.5497 2.91879 26.5497 3.33301H28.0497ZM26.5497 8.33301C26.5497 8.74722 26.8855 9.08301 27.2997 9.08301C27.7139 9.08301 28.0497 8.74722 28.0497 8.33301H26.5497ZM14.7164 3.33301C14.7164 2.91879 14.3806 2.58301 13.9664 2.58301C13.5522 2.58301 13.2164 2.91879 13.2164 3.33301H14.7164ZM13.2164 8.33301C13.2164 8.74722 13.5522 9.08301 13.9664 9.08301C14.3806 9.08301 14.7164 8.74722 14.7164 8.33301H13.2164ZM12.2997 6.58301H28.9664V5.08301H12.2997V6.58301ZM34.8831 12.4997V29.9997H36.3831V12.4997H34.8831ZM28.9664 35.9163H12.2997V37.4163H28.9664V35.9163ZM6.38306 29.9997V12.4997H4.88306V29.9997H6.38306ZM12.2997 35.9163C9.03204 35.9163 6.38306 33.2674 6.38306 29.9997H4.88306C4.88306 34.0958 8.20361 37.4163 12.2997 37.4163V35.9163ZM34.8831 29.9997C34.8831 33.2674 32.2341 35.9163 28.9664 35.9163V37.4163C33.0625 37.4163 36.3831 34.0958 36.3831 29.9997H34.8831ZM28.9664 6.58301C32.2341 6.58301 34.8831 9.23199 34.8831 12.4997H36.3831C36.3831 8.40356 33.0625 5.08301 28.9664 5.08301V6.58301ZM12.2997 5.08301C8.20361 5.08301 4.88306 8.40356 4.88306 12.4997H6.38306C6.38306 9.23199 9.03204 6.58301 12.2997 6.58301V5.08301ZM12.2997 15.7497H28.9664V14.2497H12.2997V15.7497ZM12.2997 22.4163H28.9664V20.9163H12.2997V22.4163ZM12.2997 29.083H20.6331V27.583H12.2997V29.083ZM26.5497 3.33301V8.33301H28.0497V3.33301H26.5497ZM13.2164 3.33301V8.33301H14.7164V3.33301H13.2164Z" fill="#6F6F6F"/>
</svg>
