<svg width="25" height="25" viewBox="0 0 25 25" fill="none" xmlns="http://www.w3.org/2000/svg">
<path opacity="0.4" d="M13.52 3.24744H11.6109C10.5565 3.24744 9.70178 4.05332 9.70178 5.04744C9.70178 6.18505 8.4846 6.90831 7.48543 6.36441L7.38395 6.30916C6.47084 5.81211 5.30325 6.10708 4.77607 6.96801L3.82152 8.52685C3.29434 9.38778 3.60719 10.4886 4.5203 10.9857C5.51994 11.5299 5.51994 12.965 4.5203 13.5092C3.60719 14.0062 3.29434 15.1071 3.82152 15.968L4.77607 17.5269C5.30325 18.3878 6.47084 18.6828 7.38394 18.1857L7.48543 18.1305C8.48459 17.5866 9.70178 18.3098 9.70178 19.4474C9.70178 20.4415 10.5565 21.2474 11.6109 21.2474H13.52C14.5743 21.2474 15.4291 20.4415 15.4291 19.4474C15.4291 18.3098 16.6463 17.5866 17.6454 18.1305L17.7469 18.1857C18.66 18.6828 19.8276 18.3878 20.3548 17.5269L21.3093 15.968C21.8365 15.1071 21.5237 14.0062 20.6106 13.5092C19.6109 12.965 19.6109 11.5299 20.6106 10.9857C21.5237 10.4887 21.8365 9.38779 21.3093 8.52687L20.3548 6.96802C19.8276 6.10709 18.66 5.81212 17.7469 6.30917L17.6454 6.36441C16.6463 6.90832 15.4291 6.18505 15.4291 5.04744C15.4291 4.05332 14.5743 3.24744 13.52 3.24744Z" fill="#6E7883"/>
<circle cx="12.5654" cy="12.2474" r="3" fill="#6E7883"/>
</svg>
