<svg width="40" height="40" viewBox="0 0 40 40" fill="none" xmlns="http://www.w3.org/2000/svg">
<path d="M13.3333 19.2497C12.9191 19.2497 12.5833 19.5855 12.5833 19.9997C12.5833 20.4139 12.9191 20.7497 13.3333 20.7497V19.2497ZM26.6667 20.7497C27.0809 20.7497 27.4167 20.4139 27.4167 19.9997C27.4167 19.5855 27.0809 19.2497 26.6667 19.2497V20.7497ZM13.3333 25.9163C12.9191 25.9163 12.5833 26.2521 12.5833 26.6663C12.5833 27.0806 12.9191 27.4163 13.3333 27.4163V25.9163ZM26.6667 27.4163C27.0809 27.4163 27.4167 27.0806 27.4167 26.6663C27.4167 26.2521 27.0809 25.9163 26.6667 25.9163V27.4163ZM7.44977 11.7105L6.97302 11.1316H6.97302L7.44977 11.7105ZM15.7831 4.84859L15.3063 4.26961V4.26961L15.7831 4.84859ZM24.2169 4.84858L23.7401 5.42756L24.2169 4.84858ZM32.5502 11.7105L32.0735 12.2895L32.5502 11.7105ZM13.3333 20.7497H26.6667V19.2497H13.3333V20.7497ZM13.3333 27.4163H26.6667V25.9163H13.3333V27.4163ZM34.25 16.9169V29.9444H35.75V16.9169H34.25ZM28.3333 35.9163H11.6667V37.4163H28.3333V35.9163ZM5.75 29.9444V16.9169H4.25V29.9444H5.75ZM7.92652 12.2895L16.2598 5.42756L15.3063 4.26961L6.97302 11.1316L7.92652 12.2895ZM23.7401 5.42756L32.0735 12.2895L33.027 11.1316L24.6936 4.26961L23.7401 5.42756ZM16.2598 5.42756C18.437 3.63483 21.563 3.63482 23.7401 5.42756L24.6936 4.26961C21.9626 2.0208 18.0374 2.02081 15.3063 4.26961L16.2598 5.42756ZM11.6667 35.9163C8.40481 35.9163 5.75 33.2485 5.75 29.9444H4.25C4.25 34.0652 7.56473 37.4163 11.6667 37.4163V35.9163ZM34.25 29.9444C34.25 33.2485 31.5952 35.9163 28.3333 35.9163V37.4163C32.4353 37.4163 35.75 34.0652 35.75 29.9444H34.25ZM35.75 16.9169C35.75 14.6758 34.7513 12.5515 33.027 11.1316L32.0735 12.2895C33.4498 13.4229 34.25 15.1215 34.25 16.9169H35.75ZM5.75 16.9169C5.75 15.1215 6.55017 13.4229 7.92652 12.2895L6.97302 11.1316C5.24865 12.5515 4.25 14.6758 4.25 16.9169H5.75Z" fill="#6F6F6F"/>
</svg>
