<svg width="41" height="40" viewBox="0 0 41 40" fill="none" xmlns="http://www.w3.org/2000/svg">
<ellipse cx="17.2998" cy="29.1663" rx="11.6667" ry="5.83333" stroke="#6F6F6F" stroke-width="1.5" stroke-linejoin="round"/>
<circle cx="17.2998" cy="11.6667" r="6.66667" stroke="#6F6F6F" stroke-width="1.5" stroke-linejoin="round"/>
<path fill-rule="evenodd" clip-rule="evenodd" d="M25.3683 17.5749C25.0187 18.0516 24.6278 18.4961 24.201 18.9033C24.6588 19.0206 25.1386 19.083 25.633 19.083C28.8087 19.083 31.383 16.5087 31.383 13.333C31.383 10.4371 29.2422 8.04117 26.4568 7.6416C26.6922 8.17652 26.8822 8.73599 27.0217 9.3151C28.687 9.89055 29.883 11.4721 29.883 13.333C29.883 15.6803 27.9803 17.583 25.633 17.583C25.5441 17.583 25.4559 17.5803 25.3683 17.5749Z" fill="#6F6F6F"/>
<path fill-rule="evenodd" clip-rule="evenodd" d="M32.2627 29.8161C32.1935 30.4201 32.0286 31.0079 31.7771 31.574C32.2066 31.4422 32.6129 31.2966 32.9926 31.1384C33.9517 30.7388 34.7768 30.2439 35.3736 29.656C35.973 29.0654 36.3831 28.3364 36.3831 27.4998C36.3831 26.6632 35.973 25.9342 35.3736 25.3437C34.7768 24.7558 33.9517 24.2608 32.9926 23.8612C31.6002 23.281 29.85 22.8705 27.9126 22.6885C28.8328 23.2515 29.6338 23.8872 30.2904 24.5804C31.0792 24.7618 31.7943 24.9869 32.4157 25.2458C33.2663 25.6002 33.9057 26.0032 34.3209 26.4122C34.7336 26.8187 34.8831 27.1858 34.8831 27.4998C34.8831 27.8138 34.7336 28.1809 34.3209 28.5874C33.9057 28.9964 33.2663 29.3994 32.4157 29.7538C32.3653 29.7748 32.3143 29.7956 32.2627 29.8161Z" fill="#6F6F6F"/>
</svg>
