<svg width="41" height="40" viewBox="0 0 41 40" fill="none" xmlns="http://www.w3.org/2000/svg">
<path d="M18.6416 4.05503L7.6438 8.94295C6.19818 9.58545 5.25631 11.022 5.30592 12.6032C5.68712 24.7528 8.88498 29.3562 18.1923 35.3636C19.4551 36.1787 21.0787 36.1804 22.3415 35.3654C31.6982 29.3266 34.7526 24.6331 35.2076 12.6236C35.2679 11.0318 34.3244 9.58112 32.8687 8.93415L21.8907 4.05503C20.8565 3.59536 19.6759 3.59536 18.6416 4.05503Z" stroke="#6F6F6F" stroke-width="1.5" stroke-linejoin="round"/>
<path d="M15.7347 19.4147C15.4112 19.1559 14.9393 19.2084 14.6805 19.5318C14.4218 19.8553 14.4742 20.3272 14.7977 20.586L15.7347 19.4147ZM25.8306 17.1609C26.1034 16.8491 26.0718 16.3753 25.7601 16.1026C25.4483 15.8298 24.9745 15.8614 24.7017 16.1731L25.8306 17.1609ZM18.6857 22.7359L19.1542 22.1503L18.6857 22.7359ZM20.0629 22.6136L19.4985 22.1197L20.0629 22.6136ZM14.7977 20.586L18.2171 23.3216L19.1542 22.1503L15.7347 19.4147L14.7977 20.586ZM20.6274 23.1074L25.8306 17.1609L24.7017 16.1731L19.4985 22.1197L20.6274 23.1074ZM18.2171 23.3216C18.9484 23.9066 20.0107 23.8122 20.6274 23.1074L19.4985 22.1197C19.4104 22.2204 19.2587 22.2338 19.1542 22.1503L18.2171 23.3216Z" fill="#6F6F6F"/>
</svg>
