<svg width="40" height="40" viewBox="0 0 40 40" fill="none" xmlns="http://www.w3.org/2000/svg">
<path d="M8.46021 12.1789L9.09983 12.5706L8.46021 12.1789ZM12.3237 11.2029L12.6823 10.5442L12.3237 11.2029ZM8.0813 18.1311L8.43988 17.4724H8.43988L8.0813 18.1311ZM7.04607 14.4883L6.40646 14.0967L6.40646 14.0967L7.04607 14.4883ZM31.5398 27.8217L32.1794 28.2133L31.5398 27.8217ZM27.6763 28.7977L28.0349 28.139H28.0349L27.6763 28.7977ZM32.954 25.5123L32.3143 25.1206L32.954 25.5123ZM31.9187 21.8695L31.5601 22.5283L31.9187 21.8695ZM32.954 14.4884L33.5936 14.0967L32.954 14.4884ZM31.9187 18.1311L31.5601 17.4724L31.9187 18.1311ZM27.6763 11.2029L27.3177 10.5442L27.6763 11.2029ZM31.5398 12.179L30.9002 12.5706V12.5706L31.5398 12.179ZM7.04607 25.5123L6.40646 25.904L7.04607 25.5123ZM8.08129 21.8696L7.72271 21.2108L8.08129 21.8696ZM8.46021 27.8217L9.09982 27.43L8.46021 27.8217ZM12.3237 28.7978L11.9652 28.139L12.3237 28.7978ZM8.28822 21.7569L7.92963 21.0982L8.28822 21.7569ZM12.8014 28.5378L12.4428 27.879L12.8014 28.5378ZM27.1987 28.5378L26.8401 29.1965L27.1987 28.5378ZM31.7118 18.2437L31.3533 17.585L31.7118 18.2437ZM12.8013 11.4629L12.4428 12.1216L12.8013 11.4629ZM18.5859 7.41699H21.4142V5.91699H18.5859V7.41699ZM21.4142 32.5837H18.5859V34.0837H21.4142V32.5837ZM18.5859 32.5837C17.3959 32.5837 16.5076 31.6846 16.5076 30.667H15.0076C15.0076 32.5949 16.6518 34.0837 18.5859 34.0837V32.5837ZM23.4924 30.667C23.4924 31.6846 22.6042 32.5837 21.4142 32.5837V34.0837C23.3482 34.0837 24.9924 32.5949 24.9924 30.667H23.4924ZM21.4142 7.41699C22.6042 7.41699 23.4924 8.31608 23.4924 9.33366H24.9924C24.9924 7.40572 23.3482 5.91699 21.4142 5.91699V7.41699ZM18.5859 5.91699C16.6518 5.91699 15.0076 7.40572 15.0076 9.33366H16.5076C16.5076 8.31608 17.3959 7.41699 18.5859 7.41699V5.91699ZM32.3143 25.1206L30.9002 27.43L32.1794 28.2133L33.5936 25.9039L32.3143 25.1206ZM7.68568 14.88L9.09983 12.5706L7.8206 11.7873L6.40646 14.0967L7.68568 14.88ZM9.09983 12.5706C9.66229 11.6521 10.9461 11.3069 11.9652 11.8616L12.6823 10.5442C10.9958 9.62611 8.82016 10.1549 7.8206 11.7873L9.09983 12.5706ZM8.43988 17.4724C7.44424 16.9304 7.14045 15.7704 7.68568 14.88L6.40646 14.0967C5.38967 15.7572 6.01284 17.859 7.72271 18.7898L8.43988 17.4724ZM30.9002 27.43C30.3377 28.3486 29.0539 28.6937 28.0349 28.139L27.3177 29.4565C29.0042 30.3745 31.1799 29.8457 32.1794 28.2133L30.9002 27.43ZM33.5936 25.9039C34.6104 24.2435 33.9872 22.1416 32.2773 21.2108L31.5601 22.5283C32.5558 23.0703 32.8596 24.2302 32.3143 25.1206L33.5936 25.9039ZM9.09982 27.43L7.68568 25.1206L6.40646 25.904L7.8206 28.2134L9.09982 27.43ZM30.9002 12.5706L32.3143 14.88L33.5936 14.0967L32.1794 11.7873L30.9002 12.5706ZM32.3143 14.88C32.8596 15.7704 32.5558 16.9304 31.5601 17.4724L32.2773 18.7898C33.9872 17.859 34.6104 15.7572 33.5936 14.0967L32.3143 14.88ZM28.0349 11.8616C29.0539 11.3069 30.3377 11.6521 30.9002 12.5706L32.1794 11.7873C31.1799 10.155 29.0042 9.62613 27.3177 10.5442L28.0349 11.8616ZM7.68568 25.1206C7.14044 24.2302 7.44424 23.0703 8.43988 22.5283L7.72271 21.2108C6.01284 22.1416 5.38967 24.2435 6.40646 25.904L7.68568 25.1206ZM7.8206 28.2134C8.82016 29.8457 10.9958 30.3745 12.6823 29.4565L11.9652 28.139C10.9461 28.6938 9.66229 28.3486 9.09982 27.43L7.8206 28.2134ZM27.5572 12.1216L28.0349 11.8616L27.3177 10.5442L26.8401 10.8042L27.5572 12.1216ZM23.4924 9.33366V9.70629H24.9924V9.33366H23.4924ZM11.9652 11.8616L12.4428 12.1216L13.1599 10.8041L12.6823 10.5442L11.9652 11.8616ZM16.5076 9.70627V9.33366H15.0076V9.70627H16.5076ZM31.3533 22.4157L31.5601 22.5283L32.2773 21.2108L32.0704 21.0982L31.3533 22.4157ZM31.5601 17.4724L31.3533 17.585L32.0704 18.9024L32.2773 18.7898L31.5601 17.4724ZM23.4924 30.2944V30.667H24.9924V30.2944H23.4924ZM28.0349 28.139L27.5572 27.879L26.8401 29.1965L27.3177 29.4565L28.0349 28.139ZM12.4428 27.879L11.9652 28.139L12.6823 29.4565L13.1599 29.1965L12.4428 27.879ZM16.5076 30.667V30.2944H15.0076V30.667H16.5076ZM8.6468 17.585L8.43988 17.4724L7.72271 18.7898L7.92964 18.9024L8.6468 17.585ZM8.43988 22.5283L8.6468 22.4157L7.92963 21.0982L7.72271 21.2108L8.43988 22.5283ZM7.92964 18.9024C8.79945 19.3759 8.79945 20.6247 7.92963 21.0982L8.6468 22.4157C10.5604 21.374 10.5604 18.6267 8.6468 17.585L7.92964 18.9024ZM13.1599 29.1965C13.9929 28.7431 15.0076 29.346 15.0076 30.2944H16.5076C16.5076 28.208 14.2752 26.8815 12.4428 27.879L13.1599 29.1965ZM24.9924 30.2944C24.9924 29.346 26.0071 28.7431 26.8401 29.1965L27.5572 27.879C25.7248 26.8815 23.4924 28.208 23.4924 30.2944H24.9924ZM32.0704 21.0982C31.2006 20.6247 31.2006 19.3759 32.0704 18.9024L31.3533 17.585C29.4397 18.6267 29.4397 21.374 31.3533 22.4157L32.0704 21.0982ZM12.4428 12.1216C14.2752 13.1191 16.5076 11.7927 16.5076 9.70627H15.0076C15.0076 10.6546 13.9929 11.2576 13.1599 10.8041L12.4428 12.1216ZM26.8401 10.8042C26.0071 11.2576 24.9924 10.6547 24.9924 9.70629H23.4924C23.4924 11.7927 25.7248 13.1191 27.5572 12.1216L26.8401 10.8042Z" fill="#6F6F6F"/>
<circle cx="20" cy="20" r="5" stroke="#6F6F6F" stroke-width="1.5"/>
</svg>
