<svg width="41" height="40" viewBox="0 0 41 40" fill="none" xmlns="http://www.w3.org/2000/svg">
<path d="M35.5782 16.6663L35.5782 17.4163L35.5782 16.6663ZM5.68796 16.6663L5.68796 15.9163L5.68796 16.6663ZM22.5395 3.92259L22.1173 4.54251L22.5395 3.92259ZM36.5314 13.4507L36.9535 12.8307L36.5314 13.4507ZM18.7267 3.92259L19.1489 4.54251L19.1489 4.54251L18.7267 3.92259ZM4.73477 13.4507L4.31263 12.8307L4.31263 12.8307L4.73477 13.4507ZM35.5782 15.9163L5.68796 15.9163L5.68796 17.4163L35.5782 17.4163L35.5782 15.9163ZM22.1173 4.54251L36.1093 14.0706L36.9535 12.8307L22.9616 3.30268L22.1173 4.54251ZM18.3046 3.30268L4.31263 12.8307L5.15692 14.0706L19.1489 4.54251L18.3046 3.30268ZM22.9616 3.30268C21.5525 2.34312 19.7137 2.34312 18.3046 3.30268L19.1489 4.54251C20.0486 3.92984 21.2176 3.92984 22.1173 4.54251L22.9616 3.30268ZM5.68796 15.9163C4.76248 15.9163 4.32226 14.6389 5.15692 14.0706L4.31263 12.8307C2.31802 14.189 3.21309 17.4163 5.68796 17.4163L5.68796 15.9163ZM35.5782 17.4163C38.0531 17.4163 38.9481 14.189 36.9535 12.8307L36.1093 14.0706C36.9439 14.6389 36.5037 15.9163 35.5782 15.9163L35.5782 17.4163Z" fill="#6F6F6F"/>
<rect x="7.29976" y="16.667" width="8.33333" height="13.3333" stroke="#6F6F6F" stroke-width="1.5"/>
<rect x="25.6331" y="16.667" width="8.33333" height="13.3333" stroke="#6F6F6F" stroke-width="1.5"/>
<path d="M34.2428 30.5528L34.9136 30.2174L34.2428 30.5528ZM33.572 30.8882L35.9053 35.5549L37.247 34.884L34.9136 30.2174L33.572 30.8882ZM35.6817 35.9167L5.58446 35.9167L5.58446 37.4167L35.6817 37.4167L35.6817 35.9167ZM5.36085 35.5549L7.69418 30.8882L6.35254 30.2174L4.01921 34.884L5.36085 35.5549ZM7.91779 30.75L33.3484 30.75L33.3484 29.25L7.91779 29.25L7.91779 30.75ZM7.69418 30.8882C7.73653 30.8035 7.8231 30.75 7.91779 30.75L7.91779 29.25C7.25494 29.25 6.64898 29.6245 6.35254 30.2174L7.69418 30.8882ZM5.58446 35.9167C5.39861 35.9167 5.27774 35.7211 5.36085 35.5549L4.01921 34.884C3.43742 36.0476 4.28353 37.4167 5.58446 37.4167L5.58446 35.9167ZM35.9053 35.5549C35.9884 35.7211 35.8676 35.9167 35.6817 35.9167L35.6817 37.4167C36.9826 37.4167 37.8288 36.0476 37.247 34.884L35.9053 35.5549ZM34.9136 30.2174C34.6172 29.6245 34.0112 29.25 33.3484 29.25L33.3484 30.75C33.4431 30.75 33.5296 30.8035 33.572 30.8882L34.9136 30.2174Z" fill="#6F6F6F"/>
</svg>
