<svg width="41" height="40" viewBox="0 0 41 40" fill="none" xmlns="http://www.w3.org/2000/svg">
<path d="M36.1828 19.9997C36.1828 20.4139 36.5186 20.7497 36.9328 20.7497C37.3471 20.7497 37.6828 20.4139 37.6828 19.9997H36.1828ZM36.9328 37.4163C37.3471 37.4163 37.6828 37.0806 37.6828 36.6663C37.6828 36.2521 37.3471 35.9163 36.9328 35.9163V37.4163ZM7.59951 4.08301H32.9328V2.58301H7.59951V4.08301ZM4.34951 32.6663V7.33301H2.84951V32.6663H4.34951ZM36.1828 7.33301V19.9997H37.6828V7.33301H36.1828ZM36.9328 35.9163H7.59951V37.4163H36.9328V35.9163ZM2.84951 32.6663C2.84951 35.2897 4.97616 37.4163 7.59951 37.4163V35.9163C5.80458 35.9163 4.34951 34.4613 4.34951 32.6663H2.84951ZM32.9328 4.08301C34.7278 4.08301 36.1828 5.53808 36.1828 7.33301H37.6828C37.6828 4.70966 35.5562 2.58301 32.9328 2.58301V4.08301ZM7.59951 2.58301C4.97616 2.58301 2.84951 4.70965 2.84951 7.33301H4.34951C4.34951 5.53808 5.80458 4.08301 7.59951 4.08301V2.58301Z" fill="#6F6F6F"/>
<path d="M36.9328 20.0003L33.5995 16.667" stroke="#6F6F6F" stroke-width="1.5" stroke-linecap="round" stroke-linejoin="round"/>
<path d="M20.2662 10V17.5M17.7662 22.5L15.2662 25" stroke="#6F6F6F" stroke-width="1.5" stroke-linecap="round" stroke-linejoin="round"/>
<path d="M22.7662 20C22.7662 21.3807 21.6469 22.5 20.2662 22.5C18.8855 22.5 17.7662 21.3807 17.7662 20C17.7662 18.6193 18.8855 17.5 20.2662 17.5C21.6469 17.5 22.7662 18.6193 22.7662 20Z" stroke="#6F6F6F" stroke-width="1.5"/>
</svg>
