<svg width="40" height="40" viewBox="0 0 40 40" fill="none" xmlns="http://www.w3.org/2000/svg">
<path d="M23.3333 9.99967V10.7497H24.0833V9.99967H23.3333ZM16.6666 9.99967H15.9166V10.7497H16.6666V9.99967ZM30 20.7497C30.4142 20.7497 30.75 20.4139 30.75 19.9997C30.75 19.5855 30.4142 19.2497 30 19.2497L30 20.7497ZM25 19.2497C24.5858 19.2497 24.25 19.5855 24.25 19.9997C24.25 20.4139 24.5858 20.7497 25 20.7497L25 19.2497ZM30 27.4163C30.4142 27.4163 30.75 27.0806 30.75 26.6663C30.75 26.2521 30.4142 25.9163 30 25.9163L30 27.4163ZM25 25.9163C24.5858 25.9163 24.25 26.2521 24.25 26.6663C24.25 27.0806 24.5858 27.4163 25 27.4163L25 25.9163ZM8.33331 10.7497H31.6666V9.24967H8.33331V10.7497ZM35.9166 14.9997V31.6663H37.4166V14.9997H35.9166ZM31.6666 35.9163H8.33331V37.4163H31.6666V35.9163ZM4.08331 31.6663V14.9997H2.58331V31.6663H4.08331ZM8.33331 35.9163C5.9861 35.9163 4.08331 34.0136 4.08331 31.6663H2.58331C2.58331 34.842 5.15767 37.4163 8.33331 37.4163V35.9163ZM35.9166 31.6663C35.9166 34.0136 34.0139 35.9163 31.6666 35.9163V37.4163C34.8423 37.4163 37.4166 34.842 37.4166 31.6663H35.9166ZM31.6666 10.7497C34.0139 10.7497 35.9166 12.6525 35.9166 14.9997H37.4166C37.4166 11.824 34.8423 9.24967 31.6666 9.24967V10.7497ZM8.33331 9.24967C5.15768 9.24967 2.58331 11.824 2.58331 14.9997H4.08331C4.08331 12.6525 5.9861 10.7497 8.33331 10.7497V9.24967ZM18.3333 29.2497H11.6666V30.7497H18.3333V29.2497ZM11.6666 29.2497C11.1604 29.2497 10.75 28.8393 10.75 28.333H9.24998C9.24998 29.6677 10.332 30.7497 11.6666 30.7497V29.2497ZM19.25 28.333C19.25 28.8393 18.8396 29.2497 18.3333 29.2497V30.7497C19.668 30.7497 20.75 29.6677 20.75 28.333H19.25ZM15 24.083C17.3472 24.083 19.25 25.9858 19.25 28.333H20.75C20.75 25.1574 18.1756 22.583 15 22.583V24.083ZM15 22.583C11.8243 22.583 9.24998 25.1574 9.24998 28.333H10.75C10.75 25.9858 12.6528 24.083 15 24.083V22.583ZM22.5833 6.66634V9.99967H24.0833V6.66634H22.5833ZM23.3333 9.24967H16.6666V10.7497H23.3333V9.24967ZM17.4166 9.99967V6.66634H15.9166V9.99967H17.4166ZM20 4.08301C21.4267 4.08301 22.5833 5.23961 22.5833 6.66634H24.0833C24.0833 4.41118 22.2551 2.58301 20 2.58301V4.08301ZM20 2.58301C17.7448 2.58301 15.9166 4.41118 15.9166 6.66634H17.4166C17.4166 5.23961 18.5732 4.08301 20 4.08301V2.58301ZM30 19.2497L25 19.2497L25 20.7497L30 20.7497L30 19.2497ZM30 25.9163L25 25.9163L25 27.4163L30 27.4163L30 25.9163ZM17.5833 19.9997C17.5833 21.4264 16.4267 22.583 15 22.583V24.083C17.2551 24.083 19.0833 22.2548 19.0833 19.9997H17.5833ZM15 22.583C13.5732 22.583 12.4166 21.4264 12.4166 19.9997H10.9166C10.9166 22.2548 12.7448 24.083 15 24.083V22.583ZM12.4166 19.9997C12.4166 18.5729 13.5732 17.4163 15 17.4163V15.9163C12.7448 15.9163 10.9166 17.7445 10.9166 19.9997H12.4166ZM15 17.4163C16.4267 17.4163 17.5833 18.5729 17.5833 19.9997H19.0833C19.0833 17.7445 17.2551 15.9163 15 15.9163V17.4163Z" fill="#6F6F6F"/>
</svg>
