<svg width="25" height="25" viewBox="0 0 25 25" fill="none" xmlns="http://www.w3.org/2000/svg">
<path opacity="0.4" d="M6.56543 12.2474C6.56543 16.6657 10.1472 20.2474 14.5654 20.2474C18.9837 20.2474 22.5654 16.6657 22.5654 12.2474C22.5654 7.82916 18.9837 4.24744 14.5654 4.24744C10.1472 4.24744 6.56543 7.82916 6.56543 12.2474Z" fill="#6E7883"/>
<path fill-rule="evenodd" clip-rule="evenodd" d="M7.09576 7.71711C6.80287 7.42421 6.328 7.42421 6.0351 7.7171L2.0351 11.7171C1.89445 11.8577 1.81543 12.0485 1.81543 12.2474C1.81543 12.4463 1.89444 12.6371 2.0351 12.7777L6.0351 16.7778C6.32799 17.0707 6.80286 17.0707 7.09576 16.7778C7.38865 16.4849 7.38865 16.01 7.09576 15.7171L4.37608 12.9974H16.5654C16.9796 12.9974 17.3154 12.6616 17.3154 12.2474C17.3154 11.8332 16.9796 11.4974 16.5654 11.4974H4.3761L7.09576 8.77777C7.38865 8.48488 7.38865 8.01 7.09576 7.71711Z" fill="#6E7883"/>
</svg>
