<svg width="25" height="25" viewBox="0 0 25 25" fill="none" xmlns="http://www.w3.org/2000/svg">
<circle opacity="0.4" r="9" transform="matrix(1 0 0 -1 11.5654 11.2474)" fill="#6E7883"/>
<path fill-rule="evenodd" clip-rule="evenodd" d="M11.4348 13.9975C10.3634 14.0004 9.29823 14.293 7.87226 14.9319C7.49425 15.1012 7.05053 14.9321 6.88117 14.5541C6.71181 14.1761 6.88096 13.7323 7.25897 13.563C8.77884 12.8821 10.0636 12.5013 11.4306 12.4975C12.7917 12.4937 14.1605 12.864 15.849 13.553C16.2325 13.7095 16.4165 14.1473 16.26 14.5308C16.1035 14.9143 15.6657 15.0983 15.2822 14.9418C13.6704 14.2841 12.5122 13.9945 11.4348 13.9975Z" fill="#6E7883"/>
<circle r="3" transform="matrix(1 0 0 -1 11.5654 8.24744)" fill="#6E7883"/>
<path fill-rule="evenodd" clip-rule="evenodd" d="M18.5654 21.2475C20.2223 21.2475 21.5654 19.9044 21.5654 18.2476C21.5654 17.6224 21.3742 17.042 21.0471 16.5614L16.8793 20.7292C16.5668 20.5164 16.2966 20.2462 16.0838 19.9337L20.2516 15.7659C19.7711 15.4388 19.1906 15.2476 18.5654 15.2476C16.9086 15.2476 15.5654 16.5907 15.5654 18.2476C15.5654 19.9044 16.9086 21.2475 18.5654 21.2475Z" fill="#6E7883"/>
</svg>
