<svg width="25" height="25" viewBox="0 0 25 25" fill="none" xmlns="http://www.w3.org/2000/svg">
<path opacity="0.4" d="M22.0239 12.7656C22.0239 18.2885 17.5468 22.7656 12.0239 22.7656C6.50108 22.7656 2.02393 18.2885 2.02393 12.7656C2.02393 7.24278 6.50108 2.76562 12.0239 2.76562C17.5468 2.76562 22.0239 7.24278 22.0239 12.7656Z" fill="white"/>
<path fill-rule="evenodd" clip-rule="evenodd" d="M14.322 16.1247C14.6149 16.4176 15.0898 16.4176 15.3827 16.1247C15.6756 15.8318 15.6756 15.3569 15.3827 15.064L13.0847 12.766L15.3827 10.468C15.6756 10.1751 15.6756 9.70019 15.3827 9.4073C15.0898 9.11441 14.6149 9.11441 14.322 9.4073L12.024 11.7053L9.72584 9.40717C9.43295 9.11428 8.95807 9.11428 8.66518 9.40717C8.37229 9.70006 8.37229 10.1749 8.66518 10.4678L10.9633 12.766L8.66517 15.0642C8.37227 15.357 8.37227 15.8319 8.66517 16.1248C8.95806 16.4177 9.43293 16.4177 9.72583 16.1248L12.024 13.8266L14.322 16.1247Z" fill="white"/>
</svg>
