<svg width="25" height="25" viewBox="0 0 25 25" fill="none" xmlns="http://www.w3.org/2000/svg">
<path opacity="0.4" d="M10.299 22.7656H14.85C16.9486 22.7656 18.6903 21.1438 18.8398 19.0506L19.5629 6.92767C17.4366 6.1817 15.0694 5.76562 12.5745 5.76562C10.0796 5.76562 7.71238 6.1817 5.58606 6.92767L6.30913 19.0506C6.45864 21.1438 8.20041 22.7656 10.299 22.7656Z" fill="#FBF4EB"/>
<path fill-rule="evenodd" clip-rule="evenodd" d="M15.3245 5.18128V4.76562C15.3245 3.24684 14.0933 2.01562 12.5745 2.01562C11.0557 2.01562 9.82451 3.24684 9.82451 4.76562V5.18128C7.43954 5.47152 5.21144 6.1336 3.24596 7.09142C2.8736 7.27288 2.71885 7.72183 2.90031 8.09418C3.08176 8.46653 3.53071 8.62129 3.90307 8.43983C6.3947 7.2256 9.37025 6.51562 12.5745 6.51562C15.7788 6.51562 18.7543 7.2256 21.246 8.43983C21.6183 8.62129 22.0673 8.46653 22.2487 8.09418C22.4302 7.72183 22.2754 7.27288 21.9031 7.09142C19.9376 6.1336 17.7095 5.47152 15.3245 5.18128Z" fill="#FBF4EB"/>
<path fill-rule="evenodd" clip-rule="evenodd" d="M10.5746 10.0156C10.9888 10.0156 11.3246 10.3514 11.3246 10.7656V16.7656C11.3246 17.1798 10.9888 17.5156 10.5746 17.5156C10.1604 17.5156 9.82458 17.1798 9.82458 16.7656V10.7656C9.82458 10.3514 10.1604 10.0156 10.5746 10.0156Z" fill="#FBF4EB"/>
<path fill-rule="evenodd" clip-rule="evenodd" d="M14.5746 10.0156C14.9888 10.0156 15.3246 10.3514 15.3246 10.7656V16.7656C15.3246 17.1798 14.9888 17.5156 14.5746 17.5156C14.1604 17.5156 13.8246 17.1798 13.8246 16.7656V10.7656C13.8246 10.3514 14.1604 10.0156 14.5746 10.0156Z" fill="#FBF4EB"/>
</svg>
