<svg width="20" height="20" viewBox="0 0 20 20" fill="none" xmlns="http://www.w3.org/2000/svg">
<path d="M2.40674 15.0013H1.90674H2.40674ZM2.40674 5.0013H2.90674H2.40674ZM5.61585 1.66797V1.16797V1.66797ZM13.6386 1.66797V1.16797V1.66797ZM16.8477 5.0013H16.3477H16.8477ZM16.8477 10.2873H17.3477H16.8477ZM9.10026 18.3346V17.8346V18.3346ZM5.61585 18.3346V18.8346V18.3346ZM15.9078 12.6443L15.5476 12.2975L15.9078 12.6443ZM11.3694 17.3583L11.7296 17.7051L11.3694 17.3583ZM10.4295 15.0013H10.9295H10.4295ZM13.6386 11.668V11.168V11.668ZM12.3943 7.84808C12.5858 7.64915 12.5798 7.33262 12.3808 7.1411C12.1819 6.94958 11.8654 6.95559 11.6739 7.15452L12.3943 7.84808ZM10.7618 8.82279L10.4016 8.47601L10.7618 8.82279ZM8.49264 8.82279L8.85285 8.47601L8.49264 8.82279ZM7.58061 7.15452C7.38909 6.95559 7.07256 6.94958 6.87363 7.1411C6.67469 7.33262 6.66868 7.64915 6.8602 7.84808L7.58061 7.15452ZM9.12724 9.16797C9.12724 9.44411 9.35109 9.66797 9.62724 9.66797C9.90338 9.66797 10.1272 9.44411 10.1272 9.16797H9.12724ZM10.1272 5.0013C10.1272 4.72516 9.90338 4.5013 9.62724 4.5013C9.35109 4.5013 9.12724 4.72516 9.12724 5.0013H10.1272ZM2.90674 15.0013L2.90674 5.0013H1.90674L1.90674 15.0013H2.90674ZM5.61585 2.16797L13.6386 2.16797V1.16797L5.61585 1.16797V2.16797ZM16.3477 5.0013V10.2873H17.3477V5.0013H16.3477ZM9.10026 17.8346H5.61585V18.8346H9.10026V17.8346ZM15.5476 12.2975L11.0092 17.0115L11.7296 17.7051L16.268 12.9911L15.5476 12.2975ZM9.10026 18.8346C10.0902 18.8346 11.0356 18.426 11.7296 17.7051L11.0092 17.0115C10.4996 17.5409 9.8125 17.8346 9.10026 17.8346V18.8346ZM16.3477 10.2873C16.3477 11.0447 16.0579 11.7675 15.5476 12.2975L16.268 12.9911C16.9614 12.2708 17.3477 11.2979 17.3477 10.2873H16.3477ZM2.90674 5.0013C2.90674 3.41843 4.13738 2.16797 5.61585 2.16797V1.16797C3.54964 1.16797 1.90674 2.90228 1.90674 5.0013H2.90674ZM1.90674 15.0013C1.90674 17.1003 3.54963 18.8346 5.61585 18.8346V17.8346C4.13738 17.8346 2.90674 16.5842 2.90674 15.0013H1.90674ZM13.6386 2.16797C15.1171 2.16797 16.3477 3.41843 16.3477 5.0013H17.3477C17.3477 2.90228 15.7048 1.16797 13.6386 1.16797V2.16797ZM10.9295 18.3346L10.9295 15.0013H9.92951L9.92951 18.3346H10.9295ZM13.6386 12.168L16.8477 12.168V11.168L13.6386 11.168V12.168ZM10.9295 15.0013C10.9295 13.4184 12.1602 12.168 13.6386 12.168V11.168C11.5724 11.168 9.92951 12.9023 9.92951 15.0013H10.9295ZM11.6739 7.15452L10.4016 8.47601L11.122 9.16957L12.3943 7.84808L11.6739 7.15452ZM8.85285 8.47601L7.58061 7.15452L6.8602 7.84808L8.13244 9.16957L8.85285 8.47601ZM10.1272 9.16797V5.0013H9.12724V9.16797H10.1272ZM10.4016 8.47601C9.97169 8.92259 9.28278 8.92259 8.85285 8.47601L8.13244 9.16957C8.95574 10.0247 10.2987 10.0247 11.122 9.16957L10.4016 8.47601Z" fill="#FDBA0B"/>
</svg>
