<svg width="25" height="24" viewBox="0 0 25 24" fill="none" xmlns="http://www.w3.org/2000/svg">
<path d="M9.45337 7H7.45337C6.3488 7 5.45337 7.89543 5.45337 9V11C5.45337 12.1046 6.3488 13 7.45337 13H8.45337L7.42419 15.0584C6.97816 15.9504 7.62684 17 8.62419 17C9.13237 17 9.59693 16.7129 9.82419 16.2584L11.2422 13.4223C11.3811 13.1446 11.4534 12.8384 11.4534 12.5279V9C11.4534 7.89543 10.5579 7 9.45337 7Z" stroke="#161616" stroke-width="1.5" stroke-linecap="round" stroke-linejoin="round"/>
<path d="M18.4534 7H16.4534C15.3488 7 14.4534 7.89543 14.4534 9V11C14.4534 12.1046 15.3488 13 16.4534 13H17.4534L16.4242 15.0584C15.9782 15.9504 16.6268 17 17.6242 17C18.1324 17 18.5969 16.7129 18.8242 16.2584L20.2422 13.4223C20.3811 13.1446 20.4534 12.8384 20.4534 12.5279V9C20.4534 7.89543 19.5579 7 18.4534 7Z" stroke="#161616" stroke-width="1.5" stroke-linecap="round" stroke-linejoin="round"/>
</svg>
