<svg width="25" height="25" viewBox="0 0 25 25" fill="none" xmlns="http://www.w3.org/2000/svg">
<path opacity="0.4" d="M22.5654 6.24744H6.56543C4.35629 6.24744 2.56543 8.0383 2.56543 10.2474V18.2474C2.56543 20.4566 4.35629 22.2474 6.56543 22.2474H18.5654C20.7746 22.2474 22.5654 20.4566 22.5654 18.2474V6.24744Z" fill="#6E7883"/>
<path d="M22.5654 6.24744C22.5654 4.0383 20.7746 2.24744 18.5654 2.24744H12.5654C10.3563 2.24744 8.56543 4.0383 8.56543 6.24744H22.5654Z" fill="#6E7883"/>
<path d="M2.56543 12.2474L2.56543 16.2474L6.56543 16.2474C7.67 16.2474 8.56543 15.352 8.56543 14.2474C8.56543 13.1429 7.67 12.2474 6.56543 12.2474L2.56543 12.2474Z" fill="#6E7883"/>
<circle r="2" transform="matrix(1 0 0 -1 19.5654 17.2474)" fill="#6E7883"/>
<path d="M19.5654 19.2474C20.8474 19.2474 21.9666 20.0518 22.5654 21.2474C22.5654 21.7997 22.1177 22.2474 21.5654 22.2474H17.5654C17.0131 22.2474 16.5654 21.7997 16.5654 21.2474C17.1643 20.0518 18.2835 19.2474 19.5654 19.2474Z" fill="#6E7883"/>
</svg>
