<svg width="25" height="25" viewBox="0 0 25 25" fill="none" xmlns="http://www.w3.org/2000/svg">
<path opacity="0.4" d="M11.7377 21.8712L3.56813 18.1578C2.78653 17.8025 2.78654 16.6923 3.56813 16.3371L11.7377 12.6236C12.2636 12.3846 12.8671 12.3846 13.3929 12.6236L21.5625 16.3371C22.3441 16.6923 22.3441 17.8025 21.5625 18.1578L13.3929 21.8712C12.8671 22.1103 12.2636 22.1103 11.7377 21.8712Z" fill="#6E7883"/>
<path d="M11.7377 16.8712L3.56813 13.1578C2.78653 12.8025 2.78654 11.6923 3.56813 11.3371L11.7377 7.6236C12.2636 7.38458 12.8671 7.38458 13.3929 7.6236L21.5625 11.3371C22.3441 11.6923 22.3441 12.8025 21.5625 13.1578L13.3929 16.8712C12.8671 17.1103 12.2636 17.1103 11.7377 16.8712Z" fill="#6E7883"/>
<path opacity="0.4" d="M11.7377 11.8712L3.56813 8.15778C2.78653 7.80251 2.78654 6.69232 3.56813 6.33705L11.7377 2.6236C12.2636 2.38458 12.8671 2.38458 13.3929 2.6236L21.5625 6.33705C22.3441 6.69232 22.3441 7.80251 21.5625 8.15779L13.3929 11.8712C12.8671 12.1103 12.2636 12.1103 11.7377 11.8712Z" fill="#6E7883"/>
</svg>
