<svg width="35" height="35" viewBox="0 0 35 35" fill="none" xmlns="http://www.w3.org/2000/svg">
<path d="M30.625 26.2508L18.6846 31.5576C17.9304 31.8928 17.0696 31.8928 16.3154 31.5576L4.375 26.2508M30.625 18.9591L18.6846 24.266C17.9304 24.6012 17.0696 24.6012 16.3154 24.266L4.375 18.9591M5.52541 11.5135L16.1956 16.8486C17.0167 17.2592 17.9833 17.2592 18.8044 16.8486L29.4746 11.5135C30.5494 10.9761 30.5495 9.44218 29.4746 8.90475L18.8044 3.56964C17.9833 3.15908 17.0168 3.15908 16.1956 3.56964L5.52542 8.90474C4.45055 9.44218 4.45055 10.9761 5.52541 11.5135Z" stroke="#161616" stroke-width="1.5" stroke-linecap="round" stroke-linejoin="round"/>
</svg>
