<svg width="25" height="24" viewBox="0 0 25 24" fill="none" xmlns="http://www.w3.org/2000/svg">
<path d="M10.9534 6H16.9534M10.9534 14H16.9534M10.9534 10H22.9534M10.9534 18H22.9534M4.95337 10C3.8488 10 2.95337 9.10457 2.95337 8C2.95337 6.89543 3.8488 6 4.95337 6C6.05794 6 6.95337 6.89543 6.95337 8C6.95337 9.10457 6.05794 10 4.95337 10ZM4.95337 18C3.8488 18 2.95337 17.1046 2.95337 16C2.95337 14.8954 3.8488 14 4.95337 14C6.05794 14 6.95337 14.8954 6.95337 16C6.95337 17.1046 6.05794 18 4.95337 18Z" stroke="#161616" stroke-width="1.5" stroke-linecap="round"/>
</svg>
