<svg width="25" height="25" viewBox="0 0 25 25" fill="none" xmlns="http://www.w3.org/2000/svg">
<path d="M14.6513 7.24744L10.4795 7.24744L9.07846 5.64039C7.70502 4.06506 9.30728 1.71041 11.3125 2.35728L12.2403 2.65658C12.4515 2.72472 12.6794 2.72472 12.8906 2.65658L13.8184 2.35728C15.8236 1.71041 17.4258 4.06506 16.0524 5.64039L14.6513 7.24744Z" fill="#E99E24"/>
<path d="M6.24996 10.4578C7.03273 7.95293 9.35253 6.24744 11.9768 6.24744H13.1545C15.7789 6.24744 18.0987 7.95294 18.8814 10.4578L20.1314 14.4578C21.3388 18.3214 18.4524 22.2474 14.4045 22.2474H10.7268C6.679 22.2474 3.79259 18.3214 4.99996 14.4578L6.24996 10.4578Z" fill="#E99E24"/>
<path d="M12.5654 20.2474C12.5654 19.1429 13.4609 18.2474 14.5654 18.2474H20.5654C21.67 18.2474 22.5654 19.1429 22.5654 20.2474C22.5654 21.352 21.67 22.2474 20.5654 22.2474H14.5654C13.4609 22.2474 12.5654 21.352 12.5654 20.2474Z" fill="#161616"/>
<path d="M12.5654 16.2474C12.5654 15.1429 13.4609 14.2474 14.5654 14.2474H19.8988H20.5654C21.67 14.2474 22.5654 15.1429 22.5654 16.2474C22.5654 17.352 21.67 18.2474 20.5654 18.2474H14.5654C13.4609 18.2474 12.5654 17.352 12.5654 16.2474Z" fill="#161616"/>
</svg>
