<svg width="25" height="25" viewBox="0 0 25 25" fill="none" xmlns="http://www.w3.org/2000/svg">
<circle cx="20.0654" cy="4.74744" r="2.5" fill="#161616"/>
<path fill-rule="evenodd" clip-rule="evenodd" d="M16.9427 2.24744H6.56543C4.35629 2.24744 2.56543 4.0383 2.56543 6.24744V18.2474C2.56543 20.4566 4.35629 22.2474 6.56543 22.2474H18.5654C20.7746 22.2474 22.5654 20.4566 22.5654 18.2474V7.87012C21.8806 8.41908 21.0114 8.74744 20.0654 8.74744C17.8563 8.74744 16.0654 6.95658 16.0654 4.74744C16.0654 3.80149 16.3938 2.93224 16.9427 2.24744Z" fill="#E99E24"/>
<path fill-rule="evenodd" clip-rule="evenodd" d="M10.5654 7.99744C9.87507 7.99744 9.31543 8.55708 9.31543 9.24744V10.2474C9.31543 11.7662 8.08421 12.9974 6.56543 12.9974H5.56543C5.15122 12.9974 4.81543 12.6617 4.81543 12.2474C4.81543 11.8332 5.15122 11.4974 5.56543 11.4974H6.56543C7.25579 11.4974 7.81543 10.9378 7.81543 10.2474V9.24744C7.81543 7.72865 9.04665 6.49744 10.5654 6.49744C12.0842 6.49744 13.3154 7.72865 13.3154 9.24744V15.2474C13.3154 15.9378 13.8751 16.4974 14.5654 16.4974C15.2558 16.4974 15.8154 15.9378 15.8154 15.2474V14.2474C15.8154 12.7287 17.0466 11.4974 18.5654 11.4974H19.5654C19.9796 11.4974 20.3154 11.8332 20.3154 12.2474C20.3154 12.6617 19.9796 12.9974 19.5654 12.9974H18.5654C17.8751 12.9974 17.3154 13.5571 17.3154 14.2474V15.2474C17.3154 16.7662 16.0842 17.9974 14.5654 17.9974C13.0466 17.9974 11.8154 16.7662 11.8154 15.2474V9.24744C11.8154 8.55708 11.2558 7.99744 10.5654 7.99744Z" fill="#161616"/>
</svg>
