<svg width="45" height="54" viewBox="0 0 45 54" fill="none" xmlns="http://www.w3.org/2000/svg">
<path fill-rule="evenodd" clip-rule="evenodd" d="M39.8952 12.9007C40.0539 13.068 40.1947 13.2515 40.3153 13.4481L40.3662 13.4609C45.286 18.8589 46.0278 26.8657 42.1835 33.0757C38.3392 39.2858 30.8417 42.192 23.8163 40.1954C22.3538 39.7841 21.5017 38.2651 21.913 36.8027C22.3243 35.3402 23.8433 34.4881 25.3058 34.8994C29.3815 36.0673 33.7642 34.7563 36.5292 31.5422C39.2942 28.3282 39.9358 23.7989 38.1723 19.9433C36.4088 16.0877 32.5627 13.611 28.323 13.6009C22.2549 13.6847 17.3899 18.6463 17.4254 24.7148V27.8022C22.4478 27.3649 26.6446 23.4605 27.2661 18.2603C27.3794 17.3854 27.381 16.4997 27.2709 15.6245C27.5861 15.5847 27.9033 15.5636 28.2209 15.5614C29.8536 15.5488 31.4578 15.9895 32.8549 16.8345C32.8654 17.5234 32.8314 18.2123 32.7531 18.8969C32.2526 23.2127 30.0533 27.1513 26.6416 29.8414C23.9834 31.9375 20.7599 33.141 17.4254 33.3245V44.944C17.5468 48.0999 15.9323 51.0694 13.2177 52.6834C10.5031 54.2974 7.12308 54.2974 4.40845 52.6834C1.69382 51.0694 0.0793694 48.0999 0.200727 44.944V31.7931C0.193745 31.7254 0.193745 31.6572 0.200727 31.5894V17.2546C0.200727 16.9729 0.220043 16.6912 0.239248 16.4112C0.258234 16.1343 0.277111 15.859 0.277111 15.5869C0.258192 15.4177 0.258192 15.2469 0.277111 15.0777C1.25421 6.91218 8.13286 0.736095 16.356 0.640991H16.8016C17.3363 0.640991 17.8837 0.640991 18.3548 0.704645C22.2757 1.15252 25.8977 3.01788 28.5394 5.94971L28.7176 6.14068H28.1575C25.8993 6.15178 23.663 6.5835 21.5629 7.41375C20.3808 6.75395 19.0853 6.3221 17.7437 6.14068H16.7507H16.4452C10.4121 6.27266 5.60055 11.2202 5.63676 17.2546V34.3138V34.5175V44.944C5.63676 46.6666 7.0332 48.063 8.75579 48.063C10.4784 48.063 11.8748 46.6666 11.8748 44.944V24.6766C11.8693 24.6046 11.8693 24.5323 11.8748 24.4602C11.8817 15.4531 19.1631 8.14323 28.1702 8.10121H28.3357C32.675 8.09422 36.837 9.82228 39.8952 12.9007ZM27.2709 15.6245C27.2693 15.6119 27.2677 15.5994 27.2661 15.5869V15.6251C27.2677 15.6249 27.2693 15.6247 27.2709 15.6245Z" fill="url(#paint0_linear_34_3569)"/>
<defs>
<linearGradient id="paint0_linear_34_3569" x1="7.24426" y1="3.19979" x2="7.24426" y2="41.0988" gradientUnits="userSpaceOnUse">
<stop stop-color="#F5BD00"/>
<stop offset="1" stop-color="#F5BD00"/>
</linearGradient>
</defs>
</svg>