<svg width="24" height="25" viewBox="0 0 24 25" fill="none" xmlns="http://www.w3.org/2000/svg">
<path opacity="0.4" d="M22 6.78125H6C3.79086 6.78125 2 8.57211 2 10.7812V18.7812C2 20.9904 3.79086 22.7812 6 22.7812H18C20.2091 22.7812 22 20.9904 22 18.7812V6.78125Z" fill="#6E7883"/>
<path d="M22 6.78125C22 4.57211 20.2091 2.78125 18 2.78125H12C9.79086 2.78125 8 4.57211 8 6.78125H22Z" fill="#6E7883"/>
<path d="M2 12.7812L2 16.7813L6 16.7813C7.10457 16.7813 8 15.8858 8 14.7812C8 13.6767 7.10457 12.7812 6 12.7812L2 12.7812Z" fill="#6E7883"/>
<circle cx="2" cy="2" r="2" transform="matrix(1 0 0 -1 17 19.7812)" fill="#6E7883"/>
<path d="M19 19.7812C20.2819 19.7812 21.4012 20.5856 22 21.7812C22 22.3335 21.5523 22.7812 21 22.7812H17C16.4477 22.7812 16 22.3335 16 21.7812C16.5988 20.5856 17.7181 19.7812 19 19.7812Z" fill="#6E7883"/>
</svg>
