<svg width="67" height="67" viewBox="0 0 67 67" fill="none" xmlns="http://www.w3.org/2000/svg">
<circle cx="33.1613" cy="33.2438" r="33.1613" fill="#F5BD00"/>
<path fill-rule="evenodd" clip-rule="evenodd" d="M45.7507 22.9919C45.865 23.1113 45.9664 23.2422 46.0532 23.3825L46.0899 23.3916C49.6327 27.2435 50.1669 32.957 47.3986 37.3883C44.6302 41.8197 39.2311 43.8935 34.1719 42.4688C33.1188 42.1752 32.5052 41.0913 32.8014 40.0478C33.0975 39.0042 34.1914 38.3962 35.2445 38.6897C38.1796 39.523 41.3356 38.5875 43.3268 36.294C45.3179 34.0006 45.7799 30.7686 44.51 28.0173C43.2401 25.2661 40.4704 23.4988 37.4173 23.4915C33.0476 23.5513 29.5442 27.0918 29.5697 31.4222V33.6253C33.1864 33.3132 36.2086 30.5271 36.6562 26.8164C36.7378 26.1921 36.7389 25.56 36.6597 24.9355C36.8866 24.9071 37.1151 24.8921 37.3438 24.8905C38.5196 24.8815 39.6748 25.196 40.6808 25.7989C40.6884 26.2906 40.6639 26.7821 40.6075 27.2706C40.2471 30.3503 38.6634 33.1607 36.2065 35.0804C34.2923 36.5761 31.971 37.4349 29.5697 37.5658V45.8572C29.6571 48.1092 28.4945 50.2281 26.5397 51.3799C24.5848 52.5316 22.1508 52.5316 20.1959 51.3799C18.2411 50.2281 17.0785 48.1092 17.1659 45.8572V36.4731C17.1608 36.4248 17.1608 36.376 17.1659 36.3277V26.0987C17.1659 25.8977 17.1798 25.6967 17.1936 25.4969C17.2073 25.2993 17.2209 25.1029 17.2209 24.9087C17.2073 24.7879 17.2073 24.6661 17.2209 24.5453C17.9245 18.7186 22.878 14.3115 28.7997 14.2437H29.1205C29.5056 14.2437 29.8998 14.2437 30.239 14.2891C33.0625 14.6087 35.6708 15.9397 37.5731 18.0318L37.7015 18.1681H37.2981C35.6719 18.176 34.0615 18.4841 32.5492 19.0765C31.698 18.6057 30.765 18.2976 29.7989 18.1681H29.0839H28.8638C24.5193 18.2623 21.0544 21.7927 21.0805 26.0987V38.2718V38.4171V45.8572C21.0805 47.0864 22.0861 48.0829 23.3266 48.0829C24.567 48.0829 25.5726 47.0864 25.5726 45.8572V31.3949C25.5687 31.3435 25.5687 31.2919 25.5726 31.2405C25.5776 24.8132 30.8211 19.5971 37.3073 19.5671H37.4264C40.5513 19.5621 43.5484 20.7952 45.7507 22.9919ZM36.6597 24.9355C36.6585 24.9266 36.6574 24.9176 36.6562 24.9087V24.9359C36.6574 24.9358 36.6585 24.9356 36.6597 24.9355Z" fill="#161616"/>
</svg>
