<svg width="111" height="45" viewBox="0 0 111 45" fill="none" xmlns="http://www.w3.org/2000/svg">
<path fill-rule="evenodd" clip-rule="evenodd" d="M69.336 42.4576L70.0219 40.6128H73.6524L74.3383 42.4576H76.1476L72.801 34.0614H70.9325L67.5977 42.4576H69.336ZM73.0966 39.1228H70.5777L71.8313 35.7761L73.0966 39.1228ZM80.9903 44.6986C80.6 44.8523 80.1684 44.9292 79.6953 44.9292C79.2302 44.9292 78.8124 44.8563 78.4418 44.7104C78.0713 44.5646 77.748 44.3616 77.4721 44.1014C77.1962 43.8413 76.9794 43.5377 76.8217 43.1908L78.4063 42.8006C78.5483 43.0292 78.7316 43.2086 78.9562 43.3387C79.1809 43.4687 79.4352 43.5338 79.719 43.5338C80.0265 43.5338 80.2925 43.4648 80.5172 43.3268C80.7419 43.1889 80.9173 42.9957 81.0435 42.7474C81.1696 42.499 81.2327 42.2093 81.2327 41.8782V41.3697C81.0198 41.6535 80.7498 41.8762 80.4226 42.0378C80.0954 42.1995 79.7348 42.2803 79.3406 42.2803C78.9464 42.2803 78.5778 42.2014 78.2349 42.0437C77.8919 41.8861 77.5943 41.6673 77.342 41.3874C77.0897 41.1075 76.8927 40.7804 76.7507 40.4059C76.6088 40.0314 76.5379 39.6274 76.5379 39.1938C76.5379 38.7444 76.6108 38.3285 76.7567 37.9461C76.9025 37.5638 77.1075 37.2307 77.3716 36.9469C77.6357 36.6631 77.9432 36.4403 78.294 36.2787C78.6448 36.1171 79.0252 36.0363 79.4352 36.0363C79.8373 36.0363 80.1999 36.1171 80.5231 36.2787C80.8464 36.4403 81.1144 36.6749 81.3273 36.9823L81.3628 36.2137H82.8883V41.7126C82.8883 42.1935 82.8114 42.6311 82.6577 43.0253C82.5039 43.4195 82.2852 43.7585 82.0014 44.0423C81.7175 44.3261 81.3805 44.5449 80.9903 44.6986ZM79.7426 40.8139C79.4509 40.8139 79.1928 40.7409 78.9681 40.5951C78.7434 40.4492 78.564 40.2522 78.43 40.0038C78.296 39.7555 78.229 39.4736 78.229 39.1583C78.229 38.8429 78.296 38.5611 78.43 38.3127C78.564 38.0644 78.7434 37.8673 78.9681 37.7215C79.1928 37.5756 79.4509 37.5027 79.7426 37.5027C80.0343 37.5027 80.2925 37.5756 80.5172 37.7215C80.7419 37.8673 80.9213 38.0644 81.0553 38.3127C81.1893 38.5611 81.2563 38.8429 81.2563 39.1583C81.2563 39.4736 81.1893 39.7555 81.0553 40.0038C80.9213 40.2522 80.7419 40.4492 80.5172 40.5951C80.2925 40.7409 80.0343 40.8139 79.7426 40.8139ZM88.3754 42.4281C87.997 42.566 87.5949 42.635 87.1692 42.635C86.704 42.635 86.2763 42.5542 85.8861 42.3926C85.4958 42.231 85.1588 42.0024 84.875 41.7067C84.5912 41.4111 84.3704 41.0602 84.2128 40.6542C84.0551 40.2482 83.9762 39.8047 83.9762 39.3238C83.9762 38.8587 84.0551 38.4251 84.2128 38.023C84.3704 37.6209 84.5892 37.2721 84.8691 36.9764C85.149 36.6808 85.4781 36.4502 85.8565 36.2846C86.235 36.1191 86.6449 36.0363 87.0864 36.0363C87.5437 36.0363 87.9595 36.1151 88.334 36.2728C88.7085 36.4305 89.0298 36.6552 89.2978 36.9469C89.5659 37.2386 89.7728 37.5855 89.9187 37.9875C90.0645 38.3896 90.1374 38.839 90.1374 39.3357V39.7496H85.6555C85.7264 40.2147 85.896 40.5793 86.164 40.8434C86.432 41.1075 86.7711 41.2396 87.181 41.2396C87.4648 41.2396 87.723 41.1726 87.9556 41.0386C88.1882 40.9045 88.3793 40.7114 88.5291 40.4591L90.0074 40.9321C89.8654 41.2869 89.6526 41.5904 89.3688 41.8427C89.0849 42.095 88.7538 42.2901 88.3754 42.4281ZM88.4345 38.6379H85.6791C85.758 38.228 85.9216 37.9048 86.1699 37.6682C86.4183 37.4317 86.7237 37.3135 87.0864 37.3135C87.4412 37.3135 87.7388 37.4317 87.9792 37.6682C88.2197 37.9048 88.3715 38.228 88.4345 38.6379ZM92.8219 38.8745V42.4576H91.1663V36.2137H92.6918L92.7391 37.0178C92.9204 36.7182 93.1707 36.4798 93.49 36.3024C93.8093 36.125 94.1739 36.0363 94.5839 36.0363C95.0412 36.0363 95.4413 36.1447 95.7842 36.3615C96.1271 36.5783 96.3932 36.8877 96.5824 37.2898C96.7716 37.6919 96.8663 38.1649 96.8663 38.7089V42.4576H95.2107V38.9218C95.2107 38.4882 95.1121 38.1472 94.915 37.8988C94.7179 37.6505 94.4459 37.5263 94.099 37.5263C93.8468 37.5263 93.626 37.5835 93.4368 37.6978C93.2476 37.8121 93.0978 37.9718 92.9874 38.1767C92.8771 38.3817 92.8219 38.6143 92.8219 38.8745ZM101.088 42.635C101.545 42.635 101.971 42.5523 102.365 42.3867C102.759 42.2211 103.096 41.9846 103.376 41.6771C103.656 41.3697 103.847 41.007 103.95 40.5892L102.377 40.2817C102.267 40.5577 102.097 40.7705 101.869 40.9203C101.64 41.0701 101.384 41.145 101.1 41.145C100.816 41.145 100.564 41.0681 100.343 40.9144C100.122 40.7607 99.9508 40.5498 99.8286 40.2817C99.7064 40.0137 99.6453 39.7062 99.6453 39.3593C99.6453 39.0124 99.7084 38.699 99.8345 38.4192C99.9606 38.1393 100.132 37.9205 100.349 37.7628C100.566 37.6052 100.816 37.5263 101.1 37.5263C101.368 37.5263 101.608 37.6032 101.821 37.7569C102.034 37.9107 102.2 38.1216 102.318 38.3896L103.891 38.0821C103.788 37.6722 103.605 37.3135 103.341 37.006C103.077 36.6985 102.755 36.46 102.377 36.2905C101.999 36.121 101.585 36.0363 101.135 36.0363C100.686 36.0363 100.268 36.121 99.8818 36.2905C99.4955 36.46 99.1585 36.6966 98.8707 37.0001C98.583 37.3036 98.3583 37.6584 98.1966 38.0644C98.035 38.4704 97.9542 38.9099 97.9542 39.383C97.9542 39.8481 98.0331 40.2797 98.1907 40.6779C98.3484 41.076 98.5672 41.4209 98.8471 41.7126C99.1269 42.0043 99.4581 42.231 99.8404 42.3926C100.223 42.5542 100.639 42.635 101.088 42.635ZM107.161 44.4325C106.794 44.7242 106.35 44.8701 105.83 44.8701C105.617 44.8701 105.416 44.8484 105.227 44.805C105.038 44.7617 104.86 44.6927 104.695 44.5981L105.014 43.2973C105.101 43.3367 105.203 43.3702 105.322 43.3978C105.44 43.4254 105.55 43.4392 105.653 43.4392C105.881 43.4392 106.08 43.3781 106.25 43.2559C106.419 43.1337 106.559 42.9386 106.67 42.6705L106.776 42.3985L104.257 36.2137H106.067L107.545 40.6365L108.881 36.2137H110.631L108.065 43.0489C107.829 43.6796 107.527 44.1408 107.161 44.4325Z" fill="#161616"/>
<path fill-rule="evenodd" clip-rule="evenodd" d="M106.54 1.76208C106.554 0.797528 107.332 0.0189213 108.297 0.00505549C108.774 -0.00157871 109.234 0.183186 109.573 0.518175C109.913 0.853163 110.105 1.3104 110.104 1.78754V27.7455C110.104 28.7299 109.307 29.5278 108.322 29.5278C107.338 29.5278 106.54 28.7299 106.54 27.7455V1.76208ZM10.2954 0.00523763H2.40235C1.4378 0.0189213 0.659191 0.797528 0.645508 1.76208V27.7455C0.645508 28.7299 1.44347 29.5278 2.42781 29.5278C3.41215 29.5278 4.21012 28.7299 4.21012 27.7455V17.5609L10.2954 17.4846C14.9925 17.3053 18.7078 13.4454 18.7078 8.7449C18.7078 4.04441 14.9925 0.18454 10.2954 0.00523763ZM15.4896 8.80219C15.4485 11.6607 13.1412 13.968 10.2827 14.0091H4.21012V3.59531H10.2954C13.1661 3.60233 15.4896 5.93147 15.4896 8.80219ZM31.8611 25.0935C33.9679 23.7931 35.1603 21.4149 34.9421 18.9486C35.1603 16.4823 33.9679 14.1041 31.8611 12.8037C29.7542 11.5032 27.0938 11.5032 24.9869 12.8037C22.8801 14.1041 21.6877 16.4823 21.9059 18.9486C21.6877 21.4149 22.8801 23.7931 24.9869 25.0935C27.0938 26.394 29.7542 26.394 31.8611 25.0935ZM36.7117 8.3946C36.2358 8.38765 35.7776 8.57532 35.4435 8.91428C35.1093 9.25325 34.9282 9.71406 34.9421 10.1898V10.9664C33.1567 9.34468 30.836 8.43815 28.424 8.42026C22.7534 8.57304 18.2711 13.2772 18.3922 18.9486C18.2567 24.632 22.7413 29.3555 28.424 29.5151C30.8367 29.5008 33.1586 28.5938 34.9421 26.969V27.771C34.8855 28.4367 35.2087 29.0775 35.7776 29.4278C36.3465 29.7781 37.0642 29.7781 37.6331 29.4278C38.202 29.0775 38.5252 28.4367 38.4686 27.771V10.1898C38.472 9.72285 38.288 9.274 37.9578 8.94378C37.6276 8.61357 37.1787 8.42957 36.7117 8.43299V8.3946ZM58.3413 8.67488L58.545 8.82765H58.5322C58.7005 8.97052 58.8353 9.14874 58.9269 9.34961C59.0564 9.58364 59.1264 9.84598 59.1306 10.1135V27.1472C59.1138 29.8145 58.0354 32.3653 56.1339 34.2358C54.2323 36.1063 51.6641 37.1425 48.9969 37.1154C47.491 37.1019 46.0058 36.7632 44.643 36.1224C43.8501 35.6745 43.5265 34.698 43.8952 33.8653C44.2638 33.0326 45.2042 32.6156 46.0688 32.9015H46.1961C48.1112 33.8574 50.3736 33.8122 52.2489 32.7805C54.1243 31.7488 55.3736 29.8621 55.5914 27.7328C52.9464 29.7107 49.4092 30.0192 46.4617 28.5293C43.5141 27.0393 41.6652 24.0081 41.6894 20.7054V10.1135C41.7673 9.19758 42.5335 8.49384 43.4527 8.49384C44.3718 8.49384 45.138 9.19758 45.2159 10.1135V20.6418C45.1209 22.5611 46.0908 24.3768 47.739 25.3649C49.3871 26.3531 51.4456 26.3531 53.0938 25.3649C54.742 24.3768 55.7119 22.5611 55.6169 20.6418V10.0625C55.6304 9.31781 56.1088 8.66128 56.8136 8.42026H56.9663C57.0632 8.40313 57.1623 8.40313 57.2592 8.42026H57.692C57.9172 8.4808 58.135 8.56619 58.3413 8.67488ZM76.3044 10.1898C76.3078 9.72062 76.1221 9.2698 75.7891 8.9392C75.4561 8.60861 75.004 8.42613 74.5348 8.43281C71.7088 8.48495 69.0494 9.77973 67.2655 11.9721V10.1898C67.1876 9.27396 66.4215 8.57022 65.5023 8.57022C64.5831 8.57022 63.817 9.27396 63.7391 10.1898V27.7455C63.6825 28.4112 64.0056 29.0521 64.5745 29.4024C65.1435 29.7526 65.8612 29.7526 66.4301 29.4024C66.999 29.0521 67.3221 28.4112 67.2655 27.7455V19.2159V19.1396C67.7952 17.6007 68.5457 16.1469 69.4934 14.8238C70.5841 13.0996 72.4575 12.027 74.4966 11.9594C75.483 11.9665 76.2904 11.1762 76.3044 10.1898ZM88.5864 25.0299C90.6825 23.7474 91.8834 21.3987 91.6958 18.9486C91.8834 16.4984 90.6825 14.1497 88.5864 12.8673C86.4903 11.5848 83.8524 11.5848 81.7562 12.8673C79.6601 14.1497 78.4592 16.4984 78.6468 18.9486C78.4592 21.3987 79.6601 23.7474 81.7562 25.0299C83.8524 26.3124 86.4903 26.3124 88.5864 25.0299ZM93.5036 8.3948C93.0201 8.3731 92.5495 8.5548 92.206 8.89585C91.8626 9.2369 91.6775 9.70615 91.6958 10.1898V10.9664C89.9039 9.34691 87.5802 8.44098 85.165 8.42026C79.4873 8.5799 75.0048 13.2956 75.1331 18.9741C74.9977 24.6574 79.4822 29.381 85.165 29.5406C87.5813 29.5258 89.9071 28.6191 91.6958 26.9944V27.7965C91.6958 28.7667 92.4824 29.5533 93.4527 29.5533C94.423 29.5533 95.2095 28.7667 95.2095 27.7965V10.1898C95.2232 9.72506 95.0507 9.27407 94.7304 8.93702C94.4101 8.59997 93.9685 8.40478 93.5036 8.3948ZM98.9396 3.82446C98.9325 2.84503 99.7171 2.04339 100.696 2.02943V2.06762C101.676 2.06052 102.478 2.8451 102.492 3.82446V4.74108C102.548 5.41146 102.223 6.0567 101.65 6.40937C101.077 6.76205 100.354 6.76205 99.7813 6.40937C99.2083 6.0567 98.8828 5.41146 98.9396 4.74108V3.82446ZM100.696 8.3946C100.222 8.38749 99.7646 8.57555 99.4325 8.91494C99.1003 9.25433 98.9221 9.71527 98.9396 10.1898V27.7455C99.0178 28.6682 99.7896 29.3773 100.716 29.3773C101.642 29.3773 102.413 28.6682 102.492 27.7455V10.1898C102.499 9.715 102.311 9.258 101.971 8.92583C101.632 8.59366 101.171 8.41548 100.696 8.43299V8.3946Z" fill="#F5BD00"/>
</svg>
