<svg width="166" height="58" viewBox="0 0 166 58" fill="none" xmlns="http://www.w3.org/2000/svg">
<path fill-rule="evenodd" clip-rule="evenodd" d="M124.336 54.8391L125.022 52.9943H128.652L129.338 54.8391H131.148L127.801 46.4429H125.933L122.598 54.8391H124.336ZM128.097 51.5043H125.578L126.831 48.1576L128.097 51.5043ZM135.99 57.0801C135.6 57.2338 135.168 57.3107 134.695 57.3107C134.23 57.3107 133.812 57.2378 133.442 57.0919C133.071 56.9461 132.748 56.7431 132.472 56.4829C132.196 56.2227 131.979 55.9192 131.822 55.5723L133.406 55.1821C133.548 55.4107 133.732 55.59 133.956 55.7201C134.181 55.8502 134.435 55.9153 134.719 55.9153C135.026 55.9153 135.293 55.8463 135.517 55.7083C135.742 55.5703 135.917 55.3772 136.043 55.1288C136.17 54.8805 136.233 54.5908 136.233 54.2597V53.7512C136.02 54.035 135.75 54.2577 135.423 54.4193C135.095 54.5809 134.735 54.6617 134.341 54.6617C133.946 54.6617 133.578 54.5829 133.235 54.4252C132.892 54.2675 132.594 54.0488 132.342 53.7689C132.09 53.489 131.893 53.1618 131.751 52.7874C131.609 52.4129 131.538 52.0088 131.538 51.5752C131.538 51.1258 131.611 50.71 131.757 50.3276C131.903 49.9452 132.107 49.6122 132.372 49.3283C132.636 49.0445 132.943 48.8218 133.294 48.6602C133.645 48.4986 134.025 48.4178 134.435 48.4178C134.837 48.4178 135.2 48.4986 135.523 48.6602C135.846 48.8218 136.114 49.0563 136.327 49.3638L136.363 48.5951H137.888V54.0941C137.888 54.575 137.811 55.0126 137.658 55.4067C137.504 55.8009 137.285 56.1399 137.001 56.4238C136.718 56.7076 136.381 56.9264 135.99 57.0801ZM134.743 53.1953C134.451 53.1953 134.193 53.1224 133.968 52.9766C133.743 52.8307 133.564 52.6336 133.43 52.3853C133.296 52.1369 133.229 51.8551 133.229 51.5397C133.229 51.2244 133.296 50.9425 133.43 50.6942C133.564 50.4459 133.743 50.2488 133.968 50.1029C134.193 49.9571 134.451 49.8841 134.743 49.8841C135.034 49.8841 135.293 49.9571 135.517 50.1029C135.742 50.2488 135.921 50.4459 136.055 50.6942C136.189 50.9425 136.256 51.2244 136.256 51.5397C136.256 51.8551 136.189 52.1369 136.055 52.3853C135.921 52.6336 135.742 52.8307 135.517 52.9766C135.293 53.1224 135.034 53.1953 134.743 53.1953ZM143.375 54.8096C142.997 54.9475 142.595 55.0165 142.169 55.0165C141.704 55.0165 141.276 54.9357 140.886 54.7741C140.496 54.6125 140.159 54.3838 139.875 54.0882C139.591 53.7925 139.37 53.4417 139.213 53.0357C139.055 52.6297 138.976 52.1862 138.976 51.7053C138.976 51.2402 139.055 50.8066 139.213 50.4045C139.37 50.0024 139.589 49.6535 139.869 49.3579C140.149 49.0623 140.478 48.8317 140.857 48.6661C141.235 48.5005 141.645 48.4178 142.086 48.4178C142.544 48.4178 142.96 48.4966 143.334 48.6543C143.708 48.812 144.03 49.0366 144.298 49.3283C144.566 49.62 144.773 49.9669 144.919 50.369C145.065 50.7711 145.137 51.2205 145.137 51.7171V52.131H140.655C140.726 52.5962 140.896 52.9608 141.164 53.2249C141.432 53.489 141.771 53.6211 142.181 53.6211C142.465 53.6211 142.723 53.5541 142.956 53.42C143.188 53.286 143.379 53.0929 143.529 52.8406L145.007 53.3136C144.865 53.6684 144.653 53.9719 144.369 54.2242C144.085 54.4765 143.754 54.6716 143.375 54.8096ZM143.435 51.0194H140.679C140.758 50.6095 140.922 50.2862 141.17 50.0497C141.418 49.8132 141.724 49.6949 142.086 49.6949C142.441 49.6949 142.739 49.8132 142.979 50.0497C143.22 50.2862 143.371 50.6095 143.435 51.0194ZM147.822 51.2559V54.8391H146.166V48.5951H147.692L147.739 49.3993C147.92 49.0997 148.171 48.8612 148.49 48.6838C148.809 48.5065 149.174 48.4178 149.584 48.4178C150.041 48.4178 150.441 48.5262 150.784 48.743C151.127 48.9598 151.393 49.2692 151.582 49.6713C151.772 50.0734 151.866 50.5464 151.866 51.0904V54.8391H150.211V51.3032C150.211 50.8696 150.112 50.5286 149.915 50.2803C149.718 50.032 149.446 49.9078 149.099 49.9078C148.847 49.9078 148.626 49.965 148.437 50.0793C148.248 50.1936 148.098 50.3532 147.987 50.5582C147.877 50.7632 147.822 50.9958 147.822 51.2559ZM156.088 55.0165C156.545 55.0165 156.971 54.9337 157.365 54.7682C157.759 54.6026 158.096 54.3661 158.376 54.0586C158.656 53.7512 158.847 53.3885 158.95 52.9707L157.377 52.6632C157.267 52.9391 157.097 53.152 156.869 53.3018C156.64 53.4516 156.384 53.5265 156.1 53.5265C155.816 53.5265 155.564 53.4496 155.343 53.2959C155.122 53.1421 154.951 52.9312 154.829 52.6632C154.706 52.3951 154.645 52.0877 154.645 51.7408C154.645 51.3939 154.708 51.0805 154.835 50.8006C154.961 50.5208 155.132 50.302 155.349 50.1443C155.566 49.9866 155.816 49.9078 156.1 49.9078C156.368 49.9078 156.608 49.9847 156.821 50.1384C157.034 50.2921 157.2 50.503 157.318 50.7711L158.891 50.4636C158.788 50.0537 158.605 49.6949 158.341 49.3875C158.077 49.08 157.755 48.8415 157.377 48.672C156.999 48.5025 156.585 48.4178 156.135 48.4178C155.686 48.4178 155.268 48.5025 154.882 48.672C154.496 48.8415 154.158 49.078 153.871 49.3816C153.583 49.6851 153.358 50.0399 153.197 50.4459C153.035 50.8519 152.954 51.2914 152.954 51.7644C152.954 52.2296 153.033 52.6612 153.191 53.0593C153.348 53.4575 153.567 53.8024 153.847 54.0941C154.127 54.3858 154.458 54.6125 154.84 54.7741C155.223 54.9357 155.639 55.0165 156.088 55.0165ZM162.161 56.814C161.794 57.1057 161.35 57.2516 160.83 57.2516C160.617 57.2516 160.416 57.2299 160.227 57.1865C160.038 57.1432 159.86 57.0742 159.695 56.9796L160.014 55.6787C160.101 55.7182 160.203 55.7517 160.322 55.7793C160.44 55.8069 160.55 55.8206 160.653 55.8206C160.881 55.8206 161.08 55.7595 161.25 55.6374C161.419 55.5152 161.559 55.32 161.67 55.052L161.776 54.78L159.257 48.5951H161.067L162.545 53.018L163.881 48.5951H165.631L163.065 55.4304C162.829 56.0611 162.527 56.5223 162.161 56.814Z" fill="#161616"/>
<path fill-rule="evenodd" clip-rule="evenodd" d="M161.54 14.1436C161.554 13.179 162.332 12.4004 163.297 12.3865C163.774 12.3799 164.234 12.5647 164.573 12.8996C164.913 13.2346 165.105 13.6919 165.104 14.169V40.127C165.104 41.1114 164.307 41.9093 163.322 41.9093C162.338 41.9093 161.54 41.1114 161.54 40.127V14.1436ZM65.2954 12.3867H57.4024C56.4378 12.4004 55.6592 13.179 55.6455 14.1436V40.127C55.6455 41.1114 56.4435 41.9093 57.4278 41.9093C58.4122 41.9093 59.2101 41.1114 59.2101 40.127V29.9424L65.2954 29.866C69.9925 29.6867 73.7078 25.8269 73.7078 21.1264C73.7078 16.4259 69.9925 12.566 65.2954 12.3867ZM70.4896 21.1837C70.4485 24.0422 68.1412 26.3495 65.2827 26.3905H59.2101V15.9768H65.2954C68.1661 15.9838 70.4896 18.3129 70.4896 21.1837ZM86.8611 37.475C88.9679 36.1745 90.1603 33.7963 89.9421 31.3301C90.1603 28.8638 88.9679 26.4856 86.8611 25.1851C84.7542 23.8846 82.0938 23.8846 79.9869 25.1851C77.8801 26.4856 76.6877 28.8638 76.9059 31.3301C76.6877 33.7963 77.8801 36.1745 79.9869 37.475C82.0938 38.7755 84.7542 38.7755 86.8611 37.475ZM91.7117 20.7761C91.2358 20.7691 90.7776 20.9568 90.4435 21.2958C90.1093 21.6347 89.9282 22.0955 89.9421 22.5713V23.3479C88.1567 21.7261 85.836 20.8196 83.424 20.8017C77.7534 20.9545 73.2711 25.6587 73.3922 31.3301C73.2567 37.0134 77.7413 41.737 83.424 41.8966C85.8367 41.8823 88.1586 40.9753 89.9421 39.3504V40.1525C89.8855 40.8182 90.2087 41.459 90.7776 41.8093C91.3465 42.1596 92.0642 42.1596 92.6331 41.8093C93.202 41.459 93.5252 40.8182 93.4686 40.1525V22.5713C93.472 22.1043 93.288 21.6555 92.9578 21.3253C92.6276 20.995 92.1787 20.811 91.7117 20.8145V20.7761ZM113.341 21.0563L113.545 21.2091H113.532C113.701 21.352 113.835 21.5302 113.927 21.7311C114.056 21.9651 114.126 22.2274 114.131 22.4949V39.5287C114.114 42.196 113.035 44.7468 111.134 46.6173C109.232 48.4878 106.664 49.524 103.997 49.4968C102.491 49.4834 101.006 49.1446 99.643 48.5038C98.8501 48.056 98.5265 47.0795 98.8952 46.2468C99.2638 45.414 100.204 44.9971 101.069 45.283H101.196C103.111 46.2389 105.374 46.1936 107.249 45.1619C109.124 44.1302 110.374 42.2436 110.591 40.1143C107.946 42.0921 104.409 42.4007 101.462 40.9108C98.5141 39.4208 96.6652 36.3895 96.6894 33.0869V22.4949C96.7673 21.5791 97.5335 20.8753 98.4527 20.8753C99.3718 20.8753 100.138 21.5791 100.216 22.4949V33.0233C100.121 34.9426 101.091 36.7582 102.739 37.7464C104.387 38.7346 106.446 38.7346 108.094 37.7464C109.742 36.7582 110.712 34.9426 110.617 33.0233V22.444C110.63 21.6993 111.109 21.0427 111.814 20.8017H111.966C112.063 20.7846 112.162 20.7846 112.259 20.8017H112.692C112.917 20.8623 113.135 20.9477 113.341 21.0563ZM131.304 22.5713C131.308 22.1021 131.122 21.6513 130.789 21.3207C130.456 20.9901 130.004 20.8076 129.535 20.8143C126.709 20.8664 124.049 22.1612 122.266 24.3536V22.5713C122.188 21.6554 121.421 20.9517 120.502 20.9517C119.583 20.9517 118.817 21.6554 118.739 22.5713V40.127C118.682 40.7927 119.006 41.4336 119.575 41.7838C120.143 42.1341 120.861 42.1341 121.43 41.7838C121.999 41.4336 122.322 40.7927 122.266 40.127V31.5974V31.521C122.795 29.9822 123.546 28.5284 124.493 27.2053C125.584 25.4811 127.457 24.4085 129.497 24.3409C130.483 24.348 131.29 23.5577 131.304 22.5713ZM143.586 37.4114C145.683 36.1289 146.883 33.7802 146.696 31.3301C146.883 28.8799 145.683 26.5312 143.586 25.2488C141.49 23.9663 138.852 23.9663 136.756 25.2488C134.66 26.5312 133.459 28.8799 133.647 31.3301C133.459 33.7802 134.66 36.1289 136.756 37.4114C138.852 38.6938 141.49 38.6938 143.586 37.4114ZM148.504 20.7763C148.02 20.7546 147.55 20.9363 147.206 21.2773C146.863 21.6184 146.678 22.0876 146.696 22.5713V23.3479C144.904 21.7284 142.58 20.8224 140.165 20.8017C134.487 20.9614 130.005 25.6771 130.133 31.3555C129.998 37.0389 134.482 41.7624 140.165 41.922C142.581 41.9073 144.907 41.0006 146.696 39.3759V40.1779C146.696 41.1482 147.482 41.9348 148.453 41.9348C149.423 41.9348 150.21 41.1482 150.21 40.1779V22.5713C150.223 22.1065 150.051 21.6555 149.73 21.3185C149.41 20.9814 148.968 20.7863 148.504 20.7763ZM153.94 16.2059C153.933 15.2265 154.717 14.4249 155.696 14.4109V14.4491C156.676 14.442 157.478 15.2266 157.492 16.2059V17.1225C157.548 17.7929 157.223 18.4382 156.65 18.7908C156.077 19.1435 155.354 19.1435 154.781 18.7908C154.208 18.4382 153.883 17.7929 153.94 17.1225V16.2059ZM155.696 20.7761C155.222 20.769 154.765 20.957 154.432 21.2964C154.1 21.6358 153.922 22.0967 153.94 22.5713V40.127C154.018 41.0497 154.79 41.7588 155.716 41.7588C156.642 41.7588 157.413 41.0497 157.492 40.127V22.5713C157.499 22.0965 157.311 21.6395 156.971 21.3073C156.632 20.9751 156.171 20.7969 155.696 20.8145V20.7761Z" fill="#F5BD00"/>
<path d="M27.9307 15.8751C28.0455 16.7625 28.0455 17.6611 27.9307 18.5485C27.22 24.4941 21.8357 28.7458 15.8874 28.0584C14.3792 27.8791 13.0113 28.9564 12.832 30.4645C12.6527 31.9727 13.73 33.3406 15.2381 33.5199C19.5516 34.0399 23.8945 32.8198 27.3062 30.1296C30.7179 27.4395 32.9172 23.5009 33.4176 19.1851C33.496 18.5005 33.53 17.8116 33.5195 17.1227C32.1224 16.2777 30.5182 15.837 28.8855 15.8496C28.5662 15.8518 28.2474 15.8731 27.9307 15.9133" fill="url(#paint0_linear_34_3570)"/>
<path d="M40.9799 13.7363C40.8593 13.5397 40.7185 13.3562 40.5598 13.1889C37.5015 10.1105 33.3395 8.38243 29.0002 8.38942H28.8347C19.8277 8.43144 12.5463 15.7413 12.5394 24.7484C12.5338 24.8205 12.5338 24.8928 12.5394 24.9649V45.2322C12.5394 46.9548 11.1429 48.3512 9.42034 48.3512C7.69775 48.3512 6.30131 46.9548 6.30131 45.2322V34.8057C6.30131 34.7421 6.30131 34.6657 6.30131 34.602V17.5428C6.2651 11.5084 11.0766 6.56087 17.1097 6.42888H17.4153C17.7463 6.42888 18.0773 6.42888 18.4083 6.42888C19.7498 6.61031 21.0454 7.04216 22.2275 7.70196C24.3275 6.87171 26.5638 6.43998 28.822 6.42888H29.3822L29.2039 6.23792C26.5623 3.30609 22.9402 1.44073 19.0193 0.992853C18.5483 0.929199 18.0009 0.929199 17.4662 0.929199H17.0206C8.79742 1.0243 1.91876 7.20039 0.941662 15.3659C0.922743 15.5351 0.922743 15.7059 0.941662 15.8751C0.941662 16.4225 0.865278 16.9827 0.865278 17.5428V31.8777C0.858295 31.9454 0.858295 32.0136 0.865278 32.0813V45.2322C0.74392 48.3881 2.35837 51.3576 5.073 52.9716C7.78763 54.5856 11.1676 54.5856 13.8823 52.9716C16.5969 51.3576 18.2113 48.3881 18.09 45.2322V25.003C18.0544 18.9345 22.9195 13.9729 28.9875 13.8891C33.2272 13.8993 37.0733 16.3759 38.8369 20.2315C40.6004 24.0871 39.9587 28.6164 37.1937 31.8305C34.4287 35.0445 30.046 36.3555 25.9703 35.1876C24.5079 34.7763 22.9889 35.6284 22.5776 37.0909C22.1663 38.5533 23.0184 40.0723 24.4808 40.4836C31.5063 42.4802 39.0037 39.574 42.8481 33.3639C46.6924 27.1539 45.9506 19.1471 41.0308 13.7491" fill="url(#paint1_linear_34_3570)"/>
<defs>
<linearGradient id="paint0_linear_34_3570" x1="36.3174" y1="16.5176" x2="18.4948" y2="16.5176" gradientUnits="userSpaceOnUse">
<stop stop-color="#F5BD00"/>
<stop offset="1" stop-color="#F5BD00"/>
</linearGradient>
<linearGradient id="paint1_linear_34_3570" x1="7.90881" y1="3.488" x2="7.90881" y2="41.387" gradientUnits="userSpaceOnUse">
<stop stop-color="#F5BD00"/>
<stop offset="1" stop-color="#F5BD00"/>
</linearGradient>
</defs>
</svg>
