<svg width="110" height="39" viewBox="0 0 110 39" fill="none" xmlns="http://www.w3.org/2000/svg">
<path fill-rule="evenodd" clip-rule="evenodd" d="M106.067 2.65112C106.08 1.68657 106.859 0.907959 107.824 0.894094C108.301 0.887459 108.761 1.07222 109.1 1.40721C109.44 1.7422 109.631 2.19944 109.631 2.67658V28.6346C109.631 29.6189 108.833 30.4169 107.849 30.4169C106.865 30.4169 106.067 29.6189 106.067 28.6346V2.65112ZM9.82227 0.894276H1.92921C0.964654 0.907959 0.186047 1.68657 0.172363 2.65112V28.6346C0.172363 29.6189 0.970328 30.4169 1.95467 30.4169C2.93901 30.4169 3.73697 29.6189 3.73697 28.6346V18.45L9.82227 18.3736C14.5193 18.1943 18.2347 14.3344 18.2347 9.63393C18.2347 4.93345 14.5193 1.07358 9.82227 0.894276ZM15.0164 9.69122C14.9754 12.5497 12.668 14.8571 9.80954 14.8981H3.73697V4.48435H9.82227C12.693 4.49137 15.0164 6.82051 15.0164 9.69122ZM31.3879 25.9826C33.4948 24.6821 34.6872 22.3039 34.469 19.8376C34.6872 17.3714 33.4948 14.9932 31.3879 13.6927C29.2811 12.3922 26.6207 12.3922 24.5138 13.6927C22.407 14.9932 21.2145 17.3714 21.4327 19.8376C21.2145 22.3039 22.407 24.6821 24.5138 25.9826C26.6207 27.283 29.2811 27.283 31.3879 25.9826ZM36.2386 9.28364C35.7626 9.27669 35.3045 9.46436 34.9703 9.80332C34.6362 10.1423 34.455 10.6031 34.469 11.0789V11.8554C32.6835 10.2337 30.3628 9.32719 27.9509 9.3093C22.2803 9.46208 17.7979 14.1663 17.919 19.8376C17.7836 25.521 22.2681 30.2445 27.9509 30.4042C30.3635 30.3899 32.6855 29.4829 34.469 27.858V28.66C34.4124 29.3257 34.7355 29.9666 35.3044 30.3169C35.8734 30.6671 36.5911 30.6671 37.16 30.3169C37.7289 29.9666 38.052 29.3257 37.9954 28.66V11.0789C37.9988 10.6119 37.8148 10.163 37.4846 9.83282C37.1544 9.50261 36.7056 9.31861 36.2386 9.32203V9.28364ZM57.8681 9.56392L58.0718 9.71669H58.0591C58.2274 9.85956 58.3621 10.0378 58.4537 10.2386C58.5833 10.4727 58.6533 10.735 58.6574 11.0025V28.0362C58.6406 30.7035 57.5623 33.2543 55.6607 35.1248C53.7592 36.9953 51.191 38.0315 48.5238 38.0044C47.0179 37.9909 45.5327 37.6522 44.1698 37.0114C43.3769 36.5635 43.0534 35.587 43.422 34.7543C43.7906 33.9216 44.7311 33.5046 45.5957 33.7905H45.723C47.6381 34.7464 49.9004 34.7012 51.7758 33.6695C53.6511 32.6378 54.9005 30.7511 55.1183 28.6218C52.4733 30.5997 48.9361 30.9083 45.9885 29.4183C43.041 27.9284 41.1921 24.8971 41.2163 21.5945V11.0025C41.2942 10.0866 42.0603 9.38287 42.9795 9.38287C43.8987 9.38287 44.6648 10.0866 44.7427 11.0025V21.5308C44.6477 23.4502 45.6176 25.2658 47.2658 26.254C48.914 27.2421 50.9725 27.2421 52.6206 26.254C54.2688 25.2658 55.2387 23.4502 55.1437 21.5308V10.9516C55.1573 10.2068 55.6357 9.55031 56.3404 9.3093H56.4932C56.59 9.29216 56.6892 9.29216 56.786 9.3093H57.2188C57.444 9.36984 57.6618 9.45523 57.8681 9.56392ZM75.8313 11.0789C75.8347 10.6097 75.6489 10.1588 75.316 9.82824C74.983 9.49764 74.5308 9.31517 74.0616 9.32185C71.2357 9.37399 68.5762 10.6688 66.7924 12.8612V11.0789C66.7145 10.163 65.9483 9.45926 65.0292 9.45926C64.11 9.45926 63.3438 10.163 63.266 11.0789V28.6346C63.2093 29.3003 63.5325 29.9411 64.1014 30.2914C64.6703 30.6417 65.388 30.6417 65.9569 30.2914C66.5258 29.9411 66.849 29.3003 66.7924 28.6346V20.105V20.0286C67.3221 18.4897 68.0726 17.036 69.0203 15.7129C70.1109 13.9886 71.9843 12.9161 74.0234 12.8484C75.0099 12.8555 75.8172 12.0653 75.8313 11.0789ZM88.1133 25.9189C90.2094 24.6365 91.4103 22.2878 91.2227 19.8376C91.4103 17.3875 90.2094 15.0388 88.1133 13.7563C86.0171 12.4739 83.3792 12.4739 81.2831 13.7563C79.187 15.0388 77.9861 17.3875 78.1737 19.8376C77.9861 22.2878 79.187 24.6365 81.2831 25.9189C83.3792 27.2014 86.0171 27.2014 88.1133 25.9189ZM93.0304 9.28384C92.5469 9.26214 92.0764 9.44384 91.7329 9.78489C91.3894 10.1259 91.2044 10.5952 91.2227 11.0789V11.8554C89.4308 10.236 87.107 9.33002 84.6918 9.3093C79.0141 9.46893 74.5317 14.1846 74.66 19.8631C74.5246 25.5465 79.0091 30.27 84.6918 30.4296C87.1082 30.4149 89.434 29.5081 91.2227 27.8835V28.6855C91.2227 29.6558 92.0092 30.4423 92.9795 30.4423C93.9498 30.4423 94.7364 29.6558 94.7364 28.6855V11.0789C94.7501 10.6141 94.5776 10.1631 94.2573 9.82606C93.937 9.48901 93.4953 9.29382 93.0304 9.28384ZM98.4665 4.7135C98.4594 3.73407 99.244 2.93243 100.223 2.91846V2.95666C101.203 2.94956 102.004 3.73414 102.018 4.7135V5.63011C102.075 6.30049 101.75 6.94574 101.177 7.29841C100.604 7.65109 99.8811 7.65109 99.3081 7.29841C98.7352 6.94574 98.4097 6.30049 98.4665 5.63011V4.7135ZM100.223 9.28363C99.7485 9.27653 99.2915 9.46459 98.9593 9.80398C98.6272 10.1434 98.449 10.6043 98.4665 11.0789V28.6346C98.5447 29.5573 99.3164 30.2664 100.242 30.2664C101.168 30.2664 101.94 29.5573 102.018 28.6346V11.0789C102.026 10.604 101.838 10.147 101.498 9.81487C101.159 9.4827 100.698 9.30452 100.223 9.32203V9.28363Z" fill="#F5BD00"/>
</svg>
