<svg width="25" height="25" viewBox="0 0 25 25" fill="none" xmlns="http://www.w3.org/2000/svg">
<path opacity="0.4" d="M16.5654 2.24744H8.56543C7.46086 2.24744 6.56543 3.14287 6.56543 4.24744V20.2474C6.56543 21.352 7.46086 22.2474 8.56543 22.2474H16.5654C17.67 22.2474 18.5654 21.352 18.5654 20.2474V4.24744C18.5654 3.14287 17.67 2.24744 16.5654 2.24744Z" fill="#6E7883"/>
<path d="M12.5654 7.24744H18.5654C19.67 7.24744 20.5654 8.14287 20.5654 9.24744V13.2474C20.5654 14.352 19.67 15.2474 18.5654 15.2474H12.5654V7.24744Z" fill="#6E7883"/>
<path d="M13.5654 19.2474C13.5654 19.7997 13.1177 20.2474 12.5654 20.2474C12.0131 20.2474 11.5654 19.7997 11.5654 19.2474C11.5654 18.6952 12.0131 18.2474 12.5654 18.2474C13.1177 18.2474 13.5654 18.6952 13.5654 19.2474Z" fill="#6E7883"/>
<path d="M12.5654 10.7474L20.5654 10.7474L20.5654 9.24744L12.5654 9.24744L12.5654 10.7474Z" fill="#FBF4EB"/>
</svg>
