<svg width="25" height="25" viewBox="0 0 25 25" fill="none" xmlns="http://www.w3.org/2000/svg">
<path opacity="0.4" d="M17.5654 3.24744H7.56543C5.35629 3.24744 3.56543 5.0383 3.56543 7.24744V17.2474C3.56543 19.4566 5.35629 21.2474 7.56543 21.2474H17.5654C19.7746 21.2474 21.5654 19.4566 21.5654 17.2474V7.24744C21.5654 5.0383 19.7746 3.24744 17.5654 3.24744Z" fill="#6E7883"/>
<path fill-rule="evenodd" clip-rule="evenodd" d="M16.0303 6.99744C16.4445 6.99744 16.7803 7.33322 16.7803 7.74744V10.2474C16.7803 10.5904 16.5476 10.8897 16.2153 10.9743L14.2504 11.4743C13.849 11.5764 13.4407 11.3338 13.3386 10.9324C13.2364 10.531 13.4791 10.1227 13.8805 10.0206L14.7138 9.80855C14.1406 9.30323 13.3885 8.99744 12.5654 8.99744C10.7705 8.99744 9.31543 10.4525 9.31543 12.2474C9.31543 14.0424 10.7705 15.4974 12.5654 15.4974C14.0788 15.4974 15.3523 14.4624 15.7131 13.0605C15.8163 12.6594 16.2252 12.4179 16.6264 12.5211C17.0275 12.6244 17.269 13.0332 17.1657 13.4344C16.6385 15.4829 14.7798 16.9974 12.5654 16.9974C9.94208 16.9974 7.81543 14.8708 7.81543 12.2474C7.81543 9.62408 9.94208 7.49744 12.5654 7.49744C13.5752 7.49744 14.5111 7.81266 15.2803 8.34939V7.74744C15.2803 7.33322 15.6161 6.99744 16.0303 6.99744Z" fill="#6E7883"/>
</svg>
