<svg width="61" height="60" viewBox="0 0 61 60" fill="none" xmlns="http://www.w3.org/2000/svg">
<path opacity="0.4" d="M55.03 29.8822C55.03 43.4592 43.8372 54.4655 30.03 54.4655C16.2229 54.4655 5.03003 43.4592 5.03003 29.8822C5.03003 16.3052 16.2229 5.29883 30.03 5.29883C43.8372 5.29883 55.03 16.3052 55.03 29.8822Z" fill="url(#paint0_linear_870_12241)"/>
<path fill-rule="evenodd" clip-rule="evenodd" d="M35.7753 38.1399C36.5076 38.8599 37.6948 38.8599 38.427 38.1399C39.1592 37.4198 39.1592 36.2524 38.427 35.5324L32.6819 29.883L38.427 24.2337C39.1592 23.5137 39.1592 22.3463 38.427 21.6263C37.6947 20.9063 36.5075 20.9063 35.7753 21.6263L30.0302 27.2756L24.2848 21.626C23.5526 20.9059 22.3654 20.9059 21.6332 21.626C20.901 22.346 20.901 23.5134 21.6332 24.2334L27.3786 29.883L21.6332 35.5327C20.9009 36.2527 20.9009 37.4201 21.6332 38.1402C22.3654 38.8602 23.5526 38.8602 24.2848 38.1402L30.0302 32.4905L35.7753 38.1399Z" fill="url(#paint1_linear_870_12241)"/>
<defs>
<linearGradient id="paint0_linear_870_12241" x1="61.7811" y1="7.14553" x2="18.7495" y2="7.14553" gradientUnits="userSpaceOnUse">
<stop stop-color="#F6BC18"/>
<stop offset="1" stop-color="#EF6B25"/>
</linearGradient>
<linearGradient id="paint1_linear_870_12241" x1="41.392" y1="21.7468" x2="25.9934" y2="21.7468" gradientUnits="userSpaceOnUse">
<stop stop-color="#F6BC18"/>
<stop offset="1" stop-color="#EF6B25"/>
</linearGradient>
</defs>
</svg>
