<svg width="24" height="25" viewBox="0 0 24 25" fill="none" xmlns="http://www.w3.org/2000/svg">
<path d="M20 3.78125C21.1046 3.78125 22 4.67668 22 5.78125L22 19.7812C22 20.8858 21.1046 21.7812 20 21.7812C18.8954 21.7812 18 20.8858 18 19.7812L18 5.78125C18 4.67668 18.8954 3.78125 20 3.78125Z" fill="#E99E24"/>
<path d="M4 11.7812C5.10457 11.7813 6 12.6767 6 13.7812L6 19.7812C6 20.8858 5.10457 21.7812 4 21.7812C2.89543 21.7812 2 20.8858 2 19.7812L2 13.7812C2 12.6767 2.89543 11.7812 4 11.7812Z" fill="#E99E24"/>
<path d="M12 7.78125C13.1046 7.78125 14 8.67668 14 9.78125L14 19.7812C14 20.8858 13.1046 21.7812 12 21.7812C10.8954 21.7812 10 20.8858 10 19.7812L10 9.78125C10 8.67668 10.8954 7.78125 12 7.78125Z" fill="#161616"/>
</svg>
