<svg width="29" height="29" viewBox="0 0 29 29" fill="none" xmlns="http://www.w3.org/2000/svg">
<circle cx="14.527" cy="14.5" r="14" fill="#F4A11D"/>
<path fill-rule="evenodd" clip-rule="evenodd" d="M10.2672 14.1994C10.2672 12.007 12.091 10.2239 14.3329 10.2239C16.5742 10.2239 18.3981 12.007 18.3981 14.1994C18.3981 16.3918 16.5742 18.1754 14.3329 18.1754C12.091 18.1754 10.2672 16.3918 10.2672 14.1994ZM9.52698 14.1994C9.52698 16.7909 11.6829 18.8993 14.3329 18.8993C15.4662 18.8993 16.5091 18.5137 17.3316 17.8695L18.8952 19.3943C18.9678 19.4648 19.0625 19.5 19.1568 19.5C19.2515 19.5 19.3467 19.4648 19.4188 19.3933C19.5634 19.252 19.5629 19.0232 19.4183 18.8818L17.873 17.3745C18.6584 16.5375 19.1383 15.4223 19.1383 14.1994C19.1383 11.6079 16.9828 9.5 14.3329 9.5C11.6829 9.5 9.52698 11.6079 9.52698 14.1994Z" fill="white"/>
<path d="M17.3316 17.8695L17.5061 17.6905L17.3496 17.5379L17.1774 17.6727L17.3316 17.8695ZM18.8952 19.3943L18.7207 19.5733L18.721 19.5736L18.8952 19.3943ZM19.4188 19.3933L19.244 19.2146L19.2428 19.2158L19.4188 19.3933ZM19.4183 18.8818L19.5931 18.7031L19.5929 18.7028L19.4183 18.8818ZM17.873 17.3745L17.6907 17.2034L17.5229 17.3822L17.6984 17.5534L17.873 17.3745ZM14.3329 9.97388C11.9583 9.97388 10.0172 11.8637 10.0172 14.1994H10.5172C10.5172 12.1504 12.2238 10.4739 14.3329 10.4739V9.97388ZM18.6481 14.1994C18.6481 11.8637 16.707 9.97388 14.3329 9.97388V10.4739C16.4415 10.4739 18.1481 12.1504 18.1481 14.1994H18.6481ZM14.3329 18.4254C16.707 18.4254 18.6481 16.5351 18.6481 14.1994H18.1481C18.1481 16.2485 16.4414 17.9254 14.3329 17.9254V18.4254ZM10.0172 14.1994C10.0172 16.5351 11.9583 18.4254 14.3329 18.4254V17.9254C12.2238 17.9254 10.5172 16.2485 10.5172 14.1994H10.0172ZM14.3329 18.6493C11.8157 18.6493 9.77698 16.6476 9.77698 14.1994H9.27698C9.27698 16.9342 11.5502 19.1493 14.3329 19.1493V18.6493ZM17.1774 17.6727C16.3976 18.2834 15.4087 18.6493 14.3329 18.6493V19.1493C15.5237 19.1493 16.6205 18.7439 17.4857 18.0663L17.1774 17.6727ZM19.0698 19.2153L17.5061 17.6905L17.1571 18.0485L18.7207 19.5733L19.0698 19.2153ZM19.1568 19.25C19.1243 19.25 19.093 19.2379 19.0694 19.215L18.721 19.5736C18.8425 19.6916 19.0007 19.75 19.1568 19.75V19.25ZM19.2428 19.2158C19.2207 19.2377 19.1901 19.25 19.1568 19.25V19.75C19.3128 19.75 19.4728 19.6919 19.5948 19.5709L19.2428 19.2158ZM19.2435 19.0605C19.2883 19.1043 19.2878 19.1717 19.244 19.2146L19.5936 19.5721C19.8389 19.3322 19.8375 18.9421 19.5931 18.7031L19.2435 19.0605ZM17.6984 17.5534L19.2437 19.0608L19.5929 18.7028L18.0476 17.1955L17.6984 17.5534ZM18.8883 14.1994C18.8883 15.3553 18.4349 16.4103 17.6907 17.2034L18.0553 17.5455C18.8818 16.6648 19.3883 15.4892 19.3883 14.1994H18.8883ZM14.3329 9.75C16.85 9.75 18.8883 11.7512 18.8883 14.1994H19.3883C19.3883 11.4646 17.1156 9.25 14.3329 9.25V9.75ZM9.77698 14.1994C9.77698 11.7513 11.8157 9.75 14.3329 9.75V9.25C11.5502 9.25 9.27698 11.4646 9.27698 14.1994H9.77698Z" fill="white"/>
</svg>
