<svg width="25" height="25" viewBox="0 0 25 25" fill="none" xmlns="http://www.w3.org/2000/svg">
<path opacity="0.4" d="M18.5654 2.24744H6.56543C4.35629 2.24744 2.56543 4.0383 2.56543 6.24744V18.2474C2.56543 20.4566 4.35629 22.2474 6.56543 22.2474H18.5654C20.7746 22.2474 22.5654 20.4566 22.5654 18.2474V6.24744C22.5654 4.0383 20.7746 2.24744 18.5654 2.24744Z" fill="#6E7883"/>
<path fill-rule="evenodd" clip-rule="evenodd" d="M12.8154 7.24744C12.8154 6.83322 13.1512 6.49744 13.5654 6.49744C13.9796 6.49744 14.3154 6.83322 14.3154 7.24744V9.43678L17.0351 6.71711C17.328 6.42421 17.8029 6.42421 18.0958 6.71711C18.3887 7.01 18.3887 7.48487 18.0958 7.77777L15.3761 10.4974H17.5654C17.9796 10.4974 18.3154 10.8332 18.3154 11.2474C18.3154 11.6617 17.9796 11.9974 17.5654 11.9974H13.5654C13.1512 11.9974 12.8154 11.6617 12.8154 11.2474V7.24744ZM7.56543 13.9974C7.15122 13.9974 6.81543 13.6617 6.81543 13.2474C6.81543 12.8332 7.15122 12.4974 7.56543 12.4974H11.5654C11.9796 12.4974 12.3154 12.8332 12.3154 13.2474V17.2474C12.3154 17.6616 11.9796 17.9974 11.5654 17.9974C11.1512 17.9974 10.8154 17.6616 10.8154 17.2474V15.0581L8.09576 17.7778C7.80287 18.0707 7.32799 18.0707 7.0351 17.7778C6.74221 17.4849 6.74221 17.01 7.0351 16.7171L9.75477 13.9974H7.56543Z" fill="#6E7883"/>
</svg>
