<svg width="204" height="204" viewBox="0 0 204 204" fill="none" xmlns="http://www.w3.org/2000/svg">
<circle cx="94.4727" cy="98.4734" r="66.5" transform="rotate(39 94.4727 98.4734)" fill="#F9F9F9"/>
<path d="M86.5752 120.175C85.0856 120.175 83.596 119.61 82.4588 118.473L66.6784 102.692C64.4041 100.418 64.4041 96.7339 66.6784 94.4662C68.9527 92.1919 72.6301 92.1853 74.9044 94.4596L86.5752 106.13L114.026 78.6791C116.301 76.4048 119.978 76.4048 122.252 78.6791C124.527 80.9534 124.527 84.6375 122.252 86.9118L90.6915 118.473C89.5544 119.61 88.0648 120.175 86.5752 120.175Z" fill="#EA6212"/>
<path fill-rule="evenodd" clip-rule="evenodd" d="M155.106 102.233C154.512 103.789 154.859 105.178 155.939 107.204C159.311 105.874 161.448 105.476 164.901 105.559C164.192 104.039 164.204 102.793 164.69 100.34C161.176 100.29 158.497 100.939 155.106 102.233Z" fill="#F0B84F"/>
<path fill-rule="evenodd" clip-rule="evenodd" d="M144.403 94.357C144.702 94.63 144.906 94.929 145.111 95.379C145.753 94.584 146.225 94.085 146.851 93.623C146.76 93.094 146.58 92.856 146.278 92.568C145.805 92.883 145.112 93.537 144.403 94.357Z" fill="#CEDA42"/>
<path fill-rule="evenodd" clip-rule="evenodd" d="M156.771 95.934C157.798 96.589 158.689 97.009 159.706 97.051C160.18 96.394 160.344 95.889 160.35 95.26C159.125 95.11 158.459 94.848 157.469 94.136C157.465 94.976 157.336 95.467 156.771 95.934Z" fill="#426BA6"/>
<path fill-rule="evenodd" clip-rule="evenodd" d="M89.8439 44.893C90.4649 43.866 91.5089 43.095 94.3259 42.336C93.8039 41.186 93.0379 40.332 91.6919 39.51C89.6749 40.364 88.5439 41.036 87.1289 42.624C88.3379 43.089 88.9089 43.664 89.8439 44.893Z" fill="#F0B84F"/>
<path fill-rule="evenodd" clip-rule="evenodd" d="M122.828 44.711C122.68 44.142 122.503 43.701 122.158 43.352C121.775 43.428 121.551 43.553 121.343 43.773C121.725 44.228 121.875 44.54 121.991 45.116C122.268 44.821 122.475 44.689 122.828 44.711Z" fill="#426BA6"/>
<path fill-rule="evenodd" clip-rule="evenodd" d="M150.204 137.703C150.615 137.838 150.841 138.019 151.017 138.506C151.406 138.09 151.564 137.726 151.809 137.046C151.658 136.669 151.468 136.534 151.031 136.389C150.816 136.971 150.621 137.374 150.204 137.703Z" fill="#DA2C56"/>
<path fill-rule="evenodd" clip-rule="evenodd" d="M125.153 157.584C125.253 157.481 125.368 157.418 125.562 157.416C125.421 156.96 125.274 156.688 125.034 156.301C124.759 156.342 124.62 156.428 124.526 156.501C124.87 156.846 125 157.132 125.153 157.584Z" fill="#F0B84F"/>
<path fill-rule="evenodd" clip-rule="evenodd" d="M138.634 63.684C137.97 63.894 137.645 64.336 137.135 65.075C138.792 66.124 140.237 67.733 141.736 69.752C142.175 69.175 142.585 68.926 143.337 68.66C141.879 66.43 140.867 65.31 138.634 63.684Z" fill="#CEDA42"/>
<path fill-rule="evenodd" clip-rule="evenodd" d="M25.291 81.171C25.069 80.11 25.018 79.551 25.293 78.673C24.863 78.642 24.602 78.557 24.42 78.345C24.059 79.273 24.038 79.972 24.174 81.119C24.559 81.244 24.916 81.245 25.291 81.171Z" fill="#426BA6"/>
<path fill-rule="evenodd" clip-rule="evenodd" d="M61.7041 165.195C61.4451 165.588 61.4611 165.96 61.5081 166.565C62.8271 166.411 64.2721 166.64 65.9201 167.062C65.9061 166.573 66.0151 166.267 66.2961 165.806C64.5801 165.255 63.5711 165.098 61.7041 165.195Z" fill="#426BA6"/>
<path fill-rule="evenodd" clip-rule="evenodd" d="M108.859 36.311C107.898 36.489 107.306 37.087 106.622 38.25C108.32 39.533 109.172 40.483 110.187 42.24C110.733 41.419 111.362 41.044 112.74 40.538C111.691 38.76 110.545 37.615 108.859 36.311Z" fill="#F0B84F"/>
<path fill-rule="evenodd" clip-rule="evenodd" d="M39.6919 137.639C42.1579 138.488 43.5149 139.191 45.5809 140.827C46.3969 139.829 46.9189 138.833 46.9889 137.631C45.7119 136.4 43.8289 135.257 41.1669 133.968C41.2219 135.863 40.9469 136.839 39.6919 137.639Z" fill="#F0B84F"/>
<path fill-rule="evenodd" clip-rule="evenodd" d="M160.919 72.624C161.166 74.249 160.742 75.977 158.441 79.245C159.999 80 161.555 80.228 163.694 79.913C165.069 77.245 165.67 75.546 165.769 72.633C164.087 73.202 162.983 73.098 160.919 72.624Z" fill="#CEDA42"/>
<path fill-rule="evenodd" clip-rule="evenodd" d="M142.781 153.431C143.833 151.994 144.458 151.318 145.833 150.69C145.4 150.13 145.215 149.717 145.275 149.263C143.745 149.842 142.867 150.584 141.617 152.011C141.887 152.619 142.278 153.055 142.781 153.431Z" fill="#CEDA42"/>
<path fill-rule="evenodd" clip-rule="evenodd" d="M158.803 126.067C158.356 126.142 158.004 126.248 157.712 126.489C157.745 126.79 157.826 126.97 157.98 127.145C158.357 126.882 158.606 126.789 159.058 126.74C158.85 126.505 158.763 126.338 158.803 126.067Z" fill="#F0B84F"/>
<path fill-rule="evenodd" clip-rule="evenodd" d="M135.623 143.786C136.167 143.38 136.428 143.049 136.708 142.33C135.891 142.092 135.46 141.801 135.073 141.349C134.533 141.692 134.228 142.012 133.816 142.564C134.529 142.863 134.983 143.197 135.623 143.786Z" fill="#426BA6"/>
<path fill-rule="evenodd" clip-rule="evenodd" d="M8.04907 106.029C8.50407 108.568 9.05907 110.088 10.0791 111.998C11.5391 111.088 12.2911 110.259 12.8181 109.317C11.9351 108.31 11.7151 107.291 11.5131 105.682C10.2011 106.371 9.35607 106.393 8.04907 106.029Z" fill="#F0B84F"/>
<path fill-rule="evenodd" clip-rule="evenodd" d="M149.896 116.685C149.648 116.11 149.554 115.799 149.608 115.27C149.362 115.302 149.204 115.285 149.077 115.185C148.979 115.753 149.047 116.151 149.258 116.785C149.491 116.811 149.693 116.77 149.896 116.685Z" fill="#CEDA42"/>
<path fill-rule="evenodd" clip-rule="evenodd" d="M138.431 57.229C140.88 56.639 142.351 56.506 144.883 56.766C145.03 55.529 144.938 54.446 144.371 53.431C142.691 53.091 140.563 53.139 137.725 53.473C138.754 54.987 139.038 55.926 138.431 57.229Z" fill="#F0B84F"/>
<path fill-rule="evenodd" clip-rule="evenodd" d="M147.755 148.005C147.854 147.619 147.945 147.403 148.168 147.069C148.006 146.957 147.848 146.889 147.665 146.893C147.493 147.103 147.342 147.404 147.179 147.825C147.466 147.794 147.619 147.823 147.755 148.005Z" fill="#F0B84F"/>
<path fill-rule="evenodd" clip-rule="evenodd" d="M120.517 38.672C120.917 37.871 121.155 37.187 121.107 36.44C120.589 36.144 120.208 36.063 119.748 36.107C119.732 37.014 119.592 37.522 119.148 38.3C119.762 38.239 120.132 38.295 120.517 38.672Z" fill="#426BA6"/>
<path fill-rule="evenodd" clip-rule="evenodd" d="M117.475 156.146C118.528 156.738 119.472 156.628 121.012 156.396C120.377 153.056 120.702 149.321 121.48 145.032C120.231 145.159 119.429 144.934 118.201 144.297C117.106 148.786 116.888 151.393 117.475 156.146Z" fill="#DA2C56"/>
<path fill-rule="evenodd" clip-rule="evenodd" d="M48.341 76.862C50.226 75.39 51.088 74.374 51.552 71.844C48.446 69.349 46.773 67.648 44.29 64.634C43.568 65.874 42.803 66.579 42.041 67.039C44.996 70.408 46.38 72.853 48.341 76.862Z" fill="#DA2C56"/>
<path fill-rule="evenodd" clip-rule="evenodd" d="M111.718 167.317C111.029 168.385 110.208 169.174 108.923 170.047C111.725 171.621 113.518 172.819 115.278 174.516C116.869 173.959 117.512 173.273 118.246 172.189C117.022 170.887 114.631 169.083 111.718 167.317Z" fill="#426BA6"/>
<path fill-rule="evenodd" clip-rule="evenodd" d="M78.6421 58.277C80.8751 59.553 81.9471 60.341 83.0721 62.212C83.8031 61.499 84.3661 61.168 85.0271 61.179C83.9491 59.078 82.7421 57.939 80.4911 56.377C79.6631 56.863 79.1001 57.495 78.6421 58.277Z" fill="#CEDA42"/>
<path fill-rule="evenodd" clip-rule="evenodd" d="M166.552 100.212C166.578 99.923 166.661 99.75 166.95 99.561C166.621 99.372 166.361 99.325 165.881 99.27C165.66 99.425 165.601 99.569 165.574 99.875C165.985 99.925 166.275 99.991 166.552 100.212Z" fill="#F0B84F"/>
<path fill-rule="evenodd" clip-rule="evenodd" d="M161.313 117.206C161.525 117.491 161.742 117.601 162.13 117.61C162.374 117.327 162.51 117.088 162.531 116.802C162.21 116.564 162.066 116.316 161.861 115.87C161.729 116.405 161.631 116.733 161.313 117.206Z" fill="#CEDA42"/>
<path fill-rule="evenodd" clip-rule="evenodd" d="M91.528 164.315C90.428 164.509 89.415 164.395 88.17 163.53C87 167.055 86.7 169.444 86.47 172.981C88.395 173.964 89.67 174.05 90.586 174.017C89.979 170.268 90.451 167.872 91.528 164.315Z" fill="#DA2C56"/>
<path fill-rule="evenodd" clip-rule="evenodd" d="M54.1591 47.549C53.7371 47.395 53.5451 47.184 53.3111 46.83C52.9341 47.46 52.6291 48.133 52.5911 48.471C52.8871 48.664 53.1791 48.754 53.5991 48.826C53.6361 48.443 53.8231 48.105 54.1591 47.549Z" fill="#CEDA42"/>
<path fill-rule="evenodd" clip-rule="evenodd" d="M37.732 115.243C37.807 114.705 38.013 114.254 38.601 113.808C37.147 112.736 36.087 112.238 34.486 111.599C33.742 112.34 33.51 112.918 33.387 113.345C35.212 113.63 36.249 114.209 37.732 115.243Z" fill="#DA2C56"/>
<path fill-rule="evenodd" clip-rule="evenodd" d="M69.475 159.016C69.572 159.738 69.415 160.169 69.083 160.772C70.269 160.838 71.463 160.767 71.976 160.566C72.028 159.999 71.939 159.511 71.725 158.856C71.148 159.091 70.525 159.078 69.475 159.016Z" fill="#DA2C56"/>
<path fill-rule="evenodd" clip-rule="evenodd" d="M114.247 167.657C115.1 165.974 115.375 164.958 114.86 162.996C111.805 162.254 110.04 161.598 107.256 160.277C107.155 161.404 106.844 162.164 106.455 162.748C109.694 164.166 111.502 165.449 114.247 167.657Z" fill="#DA2C56"/>
<path fill-rule="evenodd" clip-rule="evenodd" d="M92.5381 172.284C92.8161 172.432 93.0221 172.634 93.1471 173.044C94.0221 172.464 94.5051 171.986 95.1731 171.24C94.9171 170.686 94.6491 170.445 94.4401 170.293C93.9201 171.231 93.3981 171.681 92.5381 172.284Z" fill="#CEDA42"/>
<path fill-rule="evenodd" clip-rule="evenodd" d="M42.437 151.045C42.696 150.77 42.806 150.591 42.819 150.185C42.274 149.87 41.973 149.644 41.514 149.233C41.43 149.443 41.328 149.572 41.22 149.662C41.761 150.117 42.036 150.465 42.437 151.045Z" fill="#F0B84F"/>
<path fill-rule="evenodd" clip-rule="evenodd" d="M130.958 61.276C131.079 64.839 131.536 67.029 132.552 69.839C134.73 68.887 135.922 67.902 136.831 66.717C135.822 65.165 135.724 63.728 135.765 61.488C133.833 62.168 132.674 62.033 130.958 61.276Z" fill="#426BA6"/>
<path fill-rule="evenodd" clip-rule="evenodd" d="M88.3989 178.252C87.1549 179.01 86.6239 179.861 86.4399 181.45C87.5139 182.55 88.4379 183.198 89.6029 183.387C90.6959 182.162 91.7669 181.664 93.6709 180.989C91.5259 180.249 90.2199 179.726 88.3989 178.252Z" fill="#426BA6"/>
<path fill-rule="evenodd" clip-rule="evenodd" d="M160.051 114.934C160.349 115.519 160.811 115.754 161.578 116.112C162.295 114.409 163.566 112.815 165.209 111.107C164.606 110.789 164.311 110.446 163.946 109.788C162.099 111.491 161.215 112.606 160.051 114.934Z" fill="#DA2C56"/>
<path fill-rule="evenodd" clip-rule="evenodd" d="M148.905 72.618C147.81 73.486 146.944 73.65 145.624 73.697C146.68 75.717 147.971 77.619 148.806 78.268C149.793 77.796 150.509 77.17 151.38 76.173C150.423 75.453 149.834 74.409 148.905 72.618Z" fill="#F0B84F"/>
<path fill-rule="evenodd" clip-rule="evenodd" d="M106.022 57.269C105.12 54.763 104.805 53.421 105.176 51.192C104.12 51.262 103.456 51.144 102.942 50.692C102.379 53.072 102.564 54.781 103.288 57.524C104.267 57.698 105.135 57.578 106.022 57.269Z" fill="#426BA6"/>
<path fill-rule="evenodd" clip-rule="evenodd" d="M82.5249 49.434C83.8799 49.989 84.5439 50.355 85.3179 51.329C85.6789 50.872 85.9719 50.644 86.3459 50.601C85.5819 49.494 84.8159 48.939 83.4279 48.223C82.9969 48.559 82.7249 48.958 82.5249 49.434Z" fill="#426BA6"/>
<path fill-rule="evenodd" clip-rule="evenodd" d="M122.872 57.186C122.8 55.977 122.155 55.16 120.833 54.14C118.997 56.029 117.7 56.931 115.386 57.908C116.311 58.704 116.675 59.534 117.086 61.303C119.429 60.288 121.011 59.056 122.872 57.186Z" fill="#CEDA42"/>
<path fill-rule="evenodd" clip-rule="evenodd" d="M22.8769 111.153C21.9249 111.81 21.5769 112.744 21.3989 114.332C23.8559 114.896 25.2379 115.509 27.1849 116.917C27.3779 115.764 27.8759 115.054 29.1189 113.84C27.1249 112.426 25.3319 111.745 22.8769 111.153Z" fill="#DA2C56"/>
<path fill-rule="evenodd" clip-rule="evenodd" d="M155.42 96.463C157.045 96.148 158.136 96.334 159.629 97.63C160.155 95.519 160.004 94.009 159.551 91.281C158.345 90.306 157.462 90.21 155.735 90.539C156.102 92.883 156.2 94.589 155.42 96.463Z" fill="#F0B84F"/>
<path fill-rule="evenodd" clip-rule="evenodd" d="M137.498 50.63C138.647 49.11 140.425 48.061 145.002 47.323C144.368 45.419 143.294 43.942 141.301 42.422C137.972 43.442 136.073 44.319 133.577 46.596C135.412 47.531 136.219 48.532 137.498 50.63Z" fill="#DA2C56"/>
<path fill-rule="evenodd" clip-rule="evenodd" d="M144.962 159.047C144.991 158.841 144.914 158.698 144.78 158.465C144.285 158.777 143.666 158.961 142.929 159.106C143.029 159.298 143.042 159.441 143.018 159.677C143.806 159.57 144.238 159.441 144.962 159.047Z" fill="#CEDA42"/>
<path fill-rule="evenodd" clip-rule="evenodd" d="M58.2539 174.048C58.2209 176.33 58.4459 177.745 59.0079 179.573C60.4299 179.031 61.2229 178.438 61.8399 177.709C61.2439 176.685 61.2249 175.763 61.3209 174.332C60.0649 174.708 59.3279 174.585 58.2539 174.048Z" fill="#CEDA42"/>
<path fill-rule="evenodd" clip-rule="evenodd" d="M37.2219 143.203C37.4339 143.539 37.6689 143.68 38.1019 143.723C38.3979 143.426 38.5699 143.171 38.6179 142.853C38.2789 142.56 38.1379 142.271 37.9469 141.755C37.7529 142.342 37.6169 142.7 37.2219 143.203Z" fill="#DA2C56"/>
<path fill-rule="evenodd" clip-rule="evenodd" d="M83.146 29.093C83.306 29.079 83.45 29.108 83.618 29.247C83.829 28.755 83.9 28.417 83.976 27.912C83.712 27.748 83.53 27.72 83.398 27.713C83.44 28.258 83.343 28.596 83.146 29.093Z" fill="#426BA6"/>
<path fill-rule="evenodd" clip-rule="evenodd" d="M138.901 125.239C139.586 126.425 139.785 127.896 138.993 131.133C140.431 131.245 141.709 130.948 143.273 130.052C143.529 127.563 143.478 126.061 142.668 123.771C141.537 124.724 140.648 124.98 138.901 125.239Z" fill="#CEDA42"/>
<path fill-rule="evenodd" clip-rule="evenodd" d="M70.545 43.199C69.611 44.285 68.228 44.987 64.761 45.323C65.147 46.782 65.881 47.94 67.305 49.173C69.849 48.567 71.315 47.999 73.294 46.41C71.963 45.621 71.405 44.833 70.545 43.199Z" fill="#CEDA42"/>
<path fill-rule="evenodd" clip-rule="evenodd" d="M66.3229 59.559C65.8879 59.809 65.6149 59.917 65.1169 60.008C65.1589 60.254 65.2369 60.455 65.4009 60.617C65.7419 60.588 66.1449 60.46 66.6679 60.237C66.3859 60.005 66.2809 59.842 66.3229 59.559Z" fill="#CEDA42"/>
<path fill-rule="evenodd" clip-rule="evenodd" d="M137.074 163.108C135.908 161.686 134.753 161.171 132.737 161.219C131.549 162.753 130.902 164.02 130.868 165.508C132.59 166.66 133.4 167.911 134.575 170.171C135.125 167.362 135.549 165.64 137.074 163.108Z" fill="#426BA6"/>
<path fill-rule="evenodd" clip-rule="evenodd" d="M34.1421 130.293C32.0271 130.201 30.7221 129.644 29.2511 127.585C27.9671 130.055 27.7061 131.98 27.4541 135.512C28.6651 137.085 29.7351 137.468 31.9831 137.574C32.2271 134.546 32.6131 132.393 34.1421 130.293Z" fill="#426BA6"/>
<path fill-rule="evenodd" clip-rule="evenodd" d="M58.0369 149.618C56.7869 148.582 55.3939 148.465 53.1809 148.829C53.3519 152.362 53.0489 154.462 51.8879 157.627C53.5179 157.449 54.6669 157.851 56.7779 159.069C57.9289 155.838 58.1699 153.158 58.0369 149.618Z" fill="#DA2C56"/>
<path fill-rule="evenodd" clip-rule="evenodd" d="M127.879 56.529C128.209 56.572 128.44 56.447 128.81 56.229C128.305 55.44 128.003 54.451 127.761 53.273C127.455 53.434 127.227 53.459 126.847 53.422C127.029 54.683 127.241 55.373 127.879 56.529Z" fill="#CEDA42"/>
<path fill-rule="evenodd" clip-rule="evenodd" d="M77.5269 160.823C79.3649 161.178 80.6039 160.831 82.1529 159.482C82.0849 157.508 81.7679 156.094 80.8269 154.907C78.7289 155.126 77.2819 154.671 74.8909 153.665C76.2869 156.223 77.0749 157.847 77.5269 160.823Z" fill="#426BA6"/>
<path fill-rule="evenodd" clip-rule="evenodd" d="M29.085 100.55C29.29 100.836 29.376 101.206 29.254 102.049C29.624 102.043 29.941 101.935 30.317 101.669C30.321 101.029 30.271 100.647 30.009 100.084C29.744 100.355 29.524 100.441 29.085 100.55Z" fill="#426BA6"/>
<path fill-rule="evenodd" clip-rule="evenodd" d="M48.1569 41.395L39.6979 27.099L37.4839 29.225L48.1569 41.395Z" fill="#EA6212"/>
<path fill-rule="evenodd" clip-rule="evenodd" d="M138.909 155.906L151.947 189.941L156.338 186.103L138.909 155.906Z" fill="#EA6212"/>
<path fill-rule="evenodd" clip-rule="evenodd" d="M126.5 29.891L136.51 1.52L131.833 0L126.5 29.891Z" fill="#EA6212"/>
<path fill-rule="evenodd" clip-rule="evenodd" d="M158.199 141.759L189.993 170.532L192.557 164.168L158.199 141.759Z" fill="#EA6212"/>
<path fill-rule="evenodd" clip-rule="evenodd" d="M24.3279 119.221L9.38989 119.963L10.1549 122.619L24.3279 119.221Z" fill="#EA6212"/>
<path fill-rule="evenodd" clip-rule="evenodd" d="M48.1739 158.744L40.7739 174.747L45.2609 172.765L48.1739 158.744Z" fill="#EA6212"/>
<path fill-rule="evenodd" clip-rule="evenodd" d="M77.182 37.246C77.144 36.857 69.13 13.691 69.13 13.691L63.115 9.698L77.182 37.246Z" fill="#EA6212"/>
<path fill-rule="evenodd" clip-rule="evenodd" d="M9.46398 65.237L37.579 74.004L0.281982 57.158L9.46398 65.237Z" fill="#EA6212"/>
<path fill-rule="evenodd" clip-rule="evenodd" d="M146.726 61.538L185.183 41.471L179.948 35.401L146.726 61.538Z" fill="#EA6212"/>
<path fill-rule="evenodd" clip-rule="evenodd" d="M100.655 195.151L97.754 162.38L95.637 203.671L100.655 195.151Z" fill="#EA6212"/>
<path fill-rule="evenodd" clip-rule="evenodd" d="M180.992 113.398L203.008 116.658L203.452 113.046L180.992 113.398Z" fill="#EA6212"/>
<path fill-rule="evenodd" clip-rule="evenodd" d="M161.631 82.035L179.083 80.148L178.006 77.088L161.631 82.035Z" fill="#EA6212"/>
</svg>
