<svg width="25" height="25" viewBox="0 0 25 25" fill="none" xmlns="http://www.w3.org/2000/svg">
<path d="M13.5654 4.24744H11.5654C6.59487 4.24744 2.56543 8.27687 2.56543 13.2474V18.2474C2.56543 20.4566 4.35629 22.2474 6.56543 22.2474H13.5654C18.536 22.2474 22.5654 18.218 22.5654 13.2474C22.5654 8.27687 18.536 4.24744 13.5654 4.24744Z" fill="#E99E24"/>
<path d="M22.5654 6.24744C22.5654 8.45658 20.7746 10.2474 18.5654 10.2474C16.3563 10.2474 14.5654 8.45658 14.5654 6.24744C14.5654 4.0383 16.3563 2.24744 18.5654 2.24744C20.7746 2.24744 22.5654 4.0383 22.5654 6.24744Z" fill="#161616"/>
<path fill-rule="evenodd" clip-rule="evenodd" d="M7.81543 11.2474C7.81543 10.8332 8.15122 10.4974 8.56543 10.4974H12.5654C12.9796 10.4974 13.3154 10.8332 13.3154 11.2474C13.3154 11.6616 12.9796 11.9974 12.5654 11.9974H8.56543C8.15122 11.9974 7.81543 11.6616 7.81543 11.2474ZM7.81543 15.2474C7.81543 14.8332 8.15122 14.4974 8.56543 14.4974H16.5654C16.9796 14.4974 17.3154 14.8332 17.3154 15.2474C17.3154 15.6616 16.9796 15.9974 16.5654 15.9974H8.56543C8.15122 15.9974 7.81543 15.6616 7.81543 15.2474Z" fill="#161616"/>
</svg>
