<svg width="25" height="25" viewBox="0 0 25 25" fill="none" xmlns="http://www.w3.org/2000/svg">
<path d="M20.5654 8.24744C21.67 8.24744 22.5654 9.14287 22.5654 10.2474L22.5654 20.2474C22.5654 21.352 21.67 22.2474 20.5654 22.2474C19.4609 22.2474 18.5654 21.352 18.5654 20.2474L18.5654 10.2474C18.5654 9.14287 19.4609 8.24744 20.5654 8.24744Z" fill="#E99E24"/>
<path d="M4.56543 16.2474C5.67 16.2474 6.56543 17.1429 6.56543 18.2474V20.2474C6.56543 21.352 5.67 22.2474 4.56543 22.2474C3.46086 22.2474 2.56543 21.352 2.56543 20.2474L2.56543 18.2474C2.56543 17.1429 3.46086 16.2474 4.56543 16.2474Z" fill="#E99E24"/>
<path d="M12.5654 12.2474C13.67 12.2474 14.5654 13.1429 14.5654 14.2474L14.5654 20.2474C14.5654 21.352 13.67 22.2474 12.5654 22.2474C11.4609 22.2474 10.5654 21.352 10.5654 20.2474L10.5654 14.2474C10.5654 13.1429 11.4609 12.2474 12.5654 12.2474Z" fill="#E99E24"/>
<path fill-rule="evenodd" clip-rule="evenodd" d="M18.8155 2.24744C18.8155 1.83322 19.1513 1.49744 19.5655 1.49744H21.5655C22.532 1.49744 23.3155 2.28094 23.3155 3.24744V5.24744C23.3155 5.66165 22.9797 5.99744 22.5655 5.99744C22.1513 5.99744 21.8155 5.66165 21.8155 5.24744V4.00855C17.9325 7.11905 14.9216 9.13976 12.0063 10.4919C9.02465 11.8748 6.179 12.5418 2.66057 12.9914C2.2497 13.0439 1.87406 12.7534 1.82156 12.3425C1.76906 11.9316 2.05958 11.556 2.47045 11.5035C5.89415 11.066 8.57773 10.4286 11.3752 9.13117C14.0843 7.87465 16.9336 5.9836 20.678 2.99744H19.5655C19.1513 2.99744 18.8155 2.66165 18.8155 2.24744Z" fill="#161616"/>
</svg>
