<svg width="25" height="25" viewBox="0 0 25 25" fill="none" xmlns="http://www.w3.org/2000/svg">
<circle opacity="0.4" cx="8.06543" cy="8.74744" r="2.5" fill="#6E7883"/>
<circle opacity="0.4" cx="17.0654" cy="8.74744" r="2.5" fill="#6E7883"/>
<ellipse opacity="0.4" cx="12.5654" cy="16.2474" rx="6" ry="3" fill="#6E7883"/>
<path fill-rule="evenodd" clip-rule="evenodd" d="M17.0603 18.2348C17.997 17.7056 18.5656 17.0097 18.5656 16.2474C18.5656 15.0605 17.1869 14.0345 15.1865 13.548C15.894 13.3563 16.7044 13.2474 17.5656 13.2474C20.327 13.2474 22.5656 14.3667 22.5656 15.7474C22.5656 17.1281 20.327 18.2474 17.5656 18.2474C17.395 18.2474 17.2264 18.2432 17.0603 18.2348Z" fill="#6E7883"/>
<path fill-rule="evenodd" clip-rule="evenodd" d="M8.07077 18.2348C7.90459 18.2432 7.73601 18.2474 7.56543 18.2474C4.80401 18.2474 2.56543 17.1281 2.56543 15.7474C2.56543 14.3667 4.80401 13.2474 7.56543 13.2474C8.42666 13.2474 9.23704 13.3563 9.94451 13.548C7.94413 14.0345 6.56543 15.0605 6.56543 16.2474C6.56543 17.0097 7.13405 17.7056 8.07077 18.2348Z" fill="#6E7883"/>
<circle cx="12.5654" cy="8.24744" r="3" fill="#6E7883"/>
</svg>
