<svg width="30" height="29" viewBox="0 0 30 29" fill="none" xmlns="http://www.w3.org/2000/svg">
<path d="M23.3787 23.6228C22.1783 20.4122 19.0828 18.1263 15.4535 18.1263C11.8241 18.1263 8.72859 20.4122 7.52819 23.6228M23.3787 23.6228C25.9263 21.4075 27.5368 18.1425 27.5368 14.5013C27.5368 7.82786 22.1269 2.41797 15.4535 2.41797C8.78001 2.41797 3.37012 7.82786 3.37012 14.5013C3.37012 18.1425 4.98064 21.4074 7.52819 23.6228M23.3787 23.6228C21.2572 25.4677 18.4857 26.5846 15.4535 26.5846C12.4212 26.5846 9.64975 25.4677 7.52819 23.6228" stroke="#28303F" stroke-width="1.5" stroke-linejoin="round"/>
<circle cx="3.625" cy="3.625" r="3.625" transform="matrix(1 0 0 -1 11.8284 14.5)" stroke="#28303F" stroke-width="1.5" stroke-linejoin="round"/>
</svg>
