<svg width="25" height="25" viewBox="0 0 25 25" fill="none" xmlns="http://www.w3.org/2000/svg">
<path d="M2.56543 10.3672L2.56543 18.4951C2.56543 20.7042 4.35629 22.4951 6.56543 22.4951H18.5654C20.7746 22.4951 22.5654 20.7042 22.5654 18.4951V10.3673L14.9684 12.8318C14.9684 12.8318 14.0667 15.2702 12.5654 15.2702C11.0642 15.2702 9.9561 12.8318 9.9561 12.8318L2.56543 10.3672Z" fill="#E99E24"/>
<path fill-rule="evenodd" clip-rule="evenodd" d="M18.5654 6.49506H6.56543C4.35629 6.49506 2.56543 8.28592 2.56543 10.4951V10.8425C2.56543 10.8425 5.47932 12.7835 10.0636 13.3522V13.8092C10.0636 14.9138 10.959 15.8092 12.0636 15.8092H13.067C14.1716 15.8092 15.067 14.9138 15.067 13.8092V13.3522C19.6514 12.7836 22.5654 10.8425 22.5654 10.8425V10.4951C22.5654 8.28592 20.7746 6.49506 18.5654 6.49506ZM11.6406 12.5894C11.5301 12.5894 11.4406 12.679 11.4406 12.7894V13.7782C11.4406 14.2201 11.7987 14.5782 12.2406 14.5782H12.8902C13.332 14.5782 13.6902 14.2201 13.6902 13.7782V12.7894C13.6902 12.679 13.6007 12.5894 13.4902 12.5894H11.6406Z" fill="#161616"/>
<path fill-rule="evenodd" clip-rule="evenodd" d="M11.5654 3.24506C10.3228 3.24506 9.31543 4.25242 9.31543 5.49506V6.49506C9.31543 6.90927 8.97964 7.24506 8.56543 7.24506C8.15122 7.24506 7.81543 6.90927 7.81543 6.49506V5.49506C7.81543 3.42399 9.49436 1.74506 11.5654 1.74506H13.5654C15.6365 1.74506 17.3154 3.42399 17.3154 5.49506V6.49506C17.3154 6.90927 16.9796 7.24506 16.5654 7.24506C16.1512 7.24506 15.8154 6.90927 15.8154 6.49506V5.49506C15.8154 4.25242 14.8081 3.24506 13.5654 3.24506H11.5654Z" fill="#161616"/>
</svg>
